<?xml version="1.0" encoding="UTF-8"?>
<svg id="Camada_1" data-name="Camada 1" xmlns="http://www.w3.org/2000/svg" viewBox="0 0 614 200">
  <defs>
    <style>
      .cls-1 {
        fill: #fff;
      }
    </style>
  </defs>
  <path class="cls-1" d="m0,200C0,133.33,0,66.67,0,0c204.67,0,409.33,0,614,0,0,66.67,0,133.33,0,200-204.67,0-409.33,0-614,0Zm168.75-99.45c-.2-2.07-.38-5.14-.81-8.16-1.05-7.31-3.96-13.79-8.94-19.33-3.31-3.69-7.35-6.31-11.78-8.39-.86-.4-1.3-.9-1.27-1.88.1-4.53-.78-8.95-2.38-13.12-3.32-8.64-9.43-14.77-17.99-18.39-4.62-1.95-9.47-3.02-14.42-3.7-2.24-.31-4.26-.08-6.22,1.11-1.05.64-2.24,1.07-3.4,1.51-1.69.65-3.32.44-4.91-.45-1.01-.57-2.1-1-3.12-1.55-1.53-.82-3.17-1.08-4.84-.78-3.26.6-6.56,1.1-9.73,2.03-7.66,2.24-14.37,6.01-19.15,12.65-2,2.79-3.54,5.78-4.59,9.04-1.21,3.77-1.72,7.66-1.92,11.6-.05,1.01-.54,1.56-1.43,1.95-9.23,4.08-15.27,11.14-18.68,20.44-3.68,10.05-3.92,20.27-.43,30.44,3.2,9.34,8.71,16.82,18.04,20.92,1.92.84,2.65,2.03,2.67,4.05.03,2.64.22,5.29.53,7.92.51,4.36,2.01,8.45,4.12,12.27,2.25,4.09,5.37,7.52,9.14,10.23,5.6,4.02,11.9,6.5,18.78,7.38,1.63.21,3.33.55,4.91.28,1.4-.24,2.73-1.13,3.97-1.92,2.89-1.83,5.78-2.7,8.89-.54.48.33.97.64,1.43.99,2.03,1.56,4.25,2.18,6.79,1.55,1.01-.25,2.03-.48,3.06-.58,4.25-.4,8.22-1.91,11.95-3.69,3.82-1.83,7.39-4.25,10.22-7.58,3.71-4.36,6.1-9.34,7.51-14.82,1.1-4.29,1.18-8.69,1.26-13.07.02-.97.37-1.5,1.24-1.89,2.57-1.15,5.06-2.38,7.36-4.1,3.78-2.83,6.72-6.31,8.95-10.37,3.58-6.52,5.01-13.63,5.21-22Zm251.9,81.84c.85,0,1.62,0,2.4,0,4.08-.02,8.15-.01,12.23-.06,6.49-.08,9.91-3.71,10.54-9.22.29-2.5.32-5.04.32-7.57.03-15.05.02-30.09,0-45.14,0-2.03,0-4.07-.16-6.09-.14-1.85-.49-3.67-1.64-5.26-2.21-3.08-5.25-4.51-8.95-4.57-4.53-.08-9.06-.05-13.6-.05-.4,0-.79.07-1.15.1v77.86Zm166.38-38.74c0-9.16.05-18.32-.04-27.48-.02-2-.2-4.12-.89-5.98-1.15-3.13-3.43-5.22-6.87-6.06-3.71-.91-7.34-.7-10.98.16-4.26,1-7.17,5.21-7.17,10.33-.02,18.78-.04,37.56.03,56.33,0,1.91.41,3.87.96,5.71.84,2.78,2.87,4.65,5.58,5.63,3.32,1.2,6.77,1.23,10.22.64,1.21-.21,2.46-.51,3.54-1.07,4.18-2.16,5.58-5.95,5.6-10.34.05-9.28.02-18.57.02-27.86Zm-224.59-39.15c-.03.51-.06.87-.06,1.24,0,20.27,0,40.54,0,60.81,0,1.82-.07,3.65-.22,5.46-.13,1.57-.88,2.82-2.33,3.6-3.24,1.74-7.05-.34-7.24-3.97-.03-.54-.04-1.08-.04-1.62.01-20.81.03-41.62.04-62.43q0-3.2-3.18-3.21c-4.37,0-4.78.32-4.8,4.72-.05,14.96-.05,29.92-.04,44.88,0,6.34-.07,12.68.16,19.02.2,5.53,3.27,8.78,8.75,9.63,3.35.52,6.74.6,9.99-.54,3.12-1.09,5.53-3.08,6.22-6.47.39-1.89.52-3.86.52-5.8.05-20.85.04-41.7.06-62.56,0-.9,0-1.8,0-2.77h-7.82Zm-155.57,54.06c-2.07.92-3.84,1.74-5.63,2.48-1.13.47-1.89,1.2-2.06,2.43-.58,4.25-.81,8.55.33,12.7.85,3.09,3.06,5.3,6.21,6.31,3.2,1.02,6.46.92,9.74.35,3.76-.66,7.2-3.98,7.65-7.72.3-2.54.36-5.1.51-7.66.35-5.91-1.09-11.41-3.85-16.6-3.23-6.07-6.52-12.11-9.63-18.24-1.21-2.38-2.49-4.9-2.87-7.49-.51-3.53-.28-7.18-.2-10.77.04-1.69,1.65-3.38,3.33-3.55,1.09-.11,2.45-.06,3.29.5,1.22.82,1.93,2.16,1.83,3.86-.12,2.11.01,4.23.03,6.34,0,.76,0,1.51,0,2.46,2.11-1.08,4.11-2,5.98-3.13.7-.42,1.32-1.28,1.57-2.07.97-3.02.41-6.05-.68-8.87-1.01-2.62-3.01-4.67-5.75-5.52-3.16-.98-6.39-.99-9.72-.28-3.9.83-7.42,4.47-7.73,8.09-.3,3.5-.32,7.03-.33,10.54,0,2.72.67,5.35,1.89,7.78,2.66,5.29,5.38,10.55,8.11,15.8,1.47,2.83,3.03,5.61,4.48,8.45,2.86,5.59,2.29,11.6,1.96,17.55-.11,2.04-1.58,3.36-3.59,3.77-1.54.32-3.3-.39-4.14-1.9-.43-.76-.68-1.71-.7-2.59-.09-3.02-.04-6.05-.04-9.08,0-1.23,0-2.46,0-3.94Zm243.54-112.59c-.1-.03-.2-.06-.3-.09v-22.65c-.92,0-1.74,0-2.56,0-3.57.02-3.98.44-3.98,4.03,0,19.89,0,39.79,0,59.68,0,.32.05.63.07.9,1.83,0,3.57-.04,5.31.01.95.03,1.22-.39,1.22-1.26-.05-8.37-.08-16.74-.11-25.11,0-.56.08-1.12.13-1.67.42.34.59.7.7,1.07,2.66,8.66,5.31,17.32,7.98,25.97.11.35.42.89.66.9,2.02.07,4.04.04,6.3.04-.5-1.53-.94-2.85-1.37-4.17-3.1-9.65-6.18-19.3-9.29-28.95-.39-1.22-.5-2.37-.03-3.62,1.62-4.34,3.15-8.71,4.72-13.07,1.38-3.81,2.78-7.61,4.15-11.43.34-.96.61-1.94.93-2.97-2.12,0-4.1-.03-6.07.04-.27,0-.66.48-.78.81-2.21,6.15-4.38,12.32-6.56,18.48-.36,1.02-.74,2.03-1.11,3.05Zm-181.77,66.19c.48,0,.97,0,1.45,0,2.79,0,5.57.03,8.36,0,.86-.01,1.22.29,1.2,1.14-.02.87.05,1.74.05,2.61,0,19.47-.02,38.94-.02,58.4,0,2.03.03,4.06.14,6.09.09,1.65.43,1.94,2.05,1.99,1.41.04,2.83-.04,4.24.04,1.11.06,1.51-.3,1.51-1.47-.04-19.81-.05-39.62-.05-59.42,0-2.19.08-4.39.19-6.58.1-1.96.69-2.54,2.66-2.72.87-.08,1.74-.04,2.62-.07,1.33-.04,2.67,0,3.98-.17,1.58-.2,2.74-1.03,3.37-2.58.54-1.34,1.24-2.62,1.85-3.93.13-.28.21-.58.37-1.03-.67,0-1.17,0-1.66,0-8.65,0-17.3-.02-25.95-.02-1.29,0-2.58-.02-3.86.07-1.39.1-2.37.89-2.47,2.2-.14,1.76-.03,3.53-.03,5.47Zm46.69-24.31c2.25,0,4.32.04,6.38-.05.29-.01.73-.68.79-1.09.81-5.95,1.58-11.9,2.34-17.85,1.03-7.96,2.05-15.93,3.08-23.89.04-.29.14-.58.21-.86.39.46.56.92.63,1.39.28,1.97.53,3.94.79,5.91,1.14,8.66,2.29,17.31,3.42,25.97.41,3.12.73,6.25,1.14,9.37.05.4.42,1.08.66,1.09,2.1.09,4.21.05,6.36.05,0-.77.07-1.35-.01-1.91-.83-5.48-1.69-10.96-2.54-16.44-1.12-7.2-2.25-14.39-3.36-21.59-1.1-7.16-2.14-14.33-3.26-21.48-.34-2.21-1.18-2.9-3.38-3.08-.7-.06-1.42-.02-2.11-.14-.96-.16-1.37.21-1.49,1.13-.26,1.93-.57,3.85-.87,5.77-.87,5.69-1.75,11.37-2.61,17.06-1.46,9.61-2.91,19.23-4.37,28.84-.58,3.84-1.16,7.67-1.79,11.8Zm84.29-22.88c-1.37.63-2.49,1.26-3.69,1.67-1.79.61-2.57,1.79-2.59,3.63-.03,3.03-.08,6.05-.22,9.07-.09,1.91-1.6,3.22-3.57,3.27-1.9.05-3.19-1.06-3.45-3.02-.12-.9-.19-1.82-.19-2.72-.02-6.84,0-13.68,0-20.52-.01-8-.04-16-.05-24,0-2.22,1.39-3.99,3.07-4.02,2.4-.03,4.19,1.56,4.22,3.91.06,4.39.04,8.79.05,13.18,0,.26.06.51.1.83,1.5-.72,2.89-1.38,4.27-2.05,1.22-.6,1.97-1.61,2-2.94.06-3.6.22-7.23-.05-10.81-.24-3.27-1.82-5.91-5.09-7.21-2.17-.86-4.42-.73-6.65-.53-5.13.46-8.34,3.74-8.36,8.63-.04,15.84-.04,31.67,0,47.51,0,2.79.65,5.41,2.9,7.41,2.05,1.82,4.57,2.13,7.1,2.25,5.27.26,10.54-2.59,10.22-9.68-.17-3.85-.02-7.71-.02-11.56,0-.69,0-1.37,0-2.29Zm-194.03,3.15c-1.76.75-3.11,1.36-4.48,1.91-1.4.57-2.1,1.66-2.15,3.08-.09,2.48-.17,4.98,0,7.45.26,3.67,2.81,6.7,5.99,7.43,2.54.59,5.08.7,7.66.16,3.24-.67,5.85-2.95,6.27-6.24.4-3.11.39-6.27.43-9.42.04-2.77-.57-5.45-1.84-7.92-2.94-5.71-5.74-11.5-8.99-17.03-3.08-5.22-3.42-10.71-2.73-16.44.2-1.68,1.66-2.84,3.14-2.79,1.87.07,3.36,1.29,3.54,3.05.15,1.52.15,3.06.19,4.59.03,1.08,0,2.17,0,3.3,1.34-.6,2.47-1.09,3.59-1.63,2.47-1.2,3.23-2.54,3.04-5.27-.03-.45-.08-.91-.13-1.36-.35-3.44-1.78-6.16-5.12-7.6-2.43-1.05-4.97-.93-7.49-.64-4.72.54-7.39,4.26-7.61,8.6-.12,2.48-.18,4.99.06,7.45.18,1.9.58,3.9,1.39,5.61,2.27,4.78,4.8,9.45,7.24,14.15,1.18,2.28,2.52,4.49,3.53,6.84,1.96,4.57,1.63,9.4,1.26,14.21-.04.51-.32,1.02-.57,1.49-.63,1.17-1.73,1.5-2.95,1.46-1.18-.05-2.26-.48-2.72-1.64-.33-.82-.52-1.75-.54-2.64-.06-3.31-.02-6.62-.02-10.19Zm294.19,36.38c-.04.26-.08.38-.08.49.01,23.92.03,47.83.04,71.75,0,1.16-.04,2.32,0,3.48.04,1.75.54,2.22,2.26,2.22,1.33,0,2.66-.03,3.99-.04,1.65,0,1.65,0,1.65-1.67,0-22.63,0-45.26-.01-67.89,0-1.86.02-3.73-.13-5.59-.15-1.83-.95-2.6-2.79-2.73-1.61-.11-3.23-.02-4.92-.02Zm75.78-55.39c-.12-.07-.23-.14-.35-.21-.18-1.51-.3-3.04-.55-4.54-.68-4-1.41-7.98-2.14-11.97-.43-2.36-.83-4.73-1.41-7.06-.16-.67-.79-1.6-1.35-1.72-1.66-.34-3.38-.34-5.2-.48.07.53.09.73.13.92.73,3.4,1.48,6.79,2.2,10.19,1.27,5.95,2.63,11.88,3.77,17.85.72,3.76,1.85,7.45,1.76,11.38-.15,6.63-.05,13.26-.04,19.89,0,.91.06,1.82.17,2.73.13,1.1.79,1.7,1.92,1.72,1.08.02,2.17-.05,3.24.04,1.13.09,1.38-.36,1.37-1.43-.04-8.16-.03-16.33-.02-24.49,0-.66.03-1.33.16-1.97,1.89-9.24,3.78-18.48,5.7-27.71.62-2.98,1.29-5.94,1.94-8.89-1.54,0-2.86-.06-4.16.02-1.74.1-2.24.57-2.59,2.29-.37,1.82-.69,3.66-1.01,5.49-1,5.62-1.98,11.25-2.99,16.86-.07.39-.35.74-.53,1.11Zm-47.34-25.69c-.25-.03-.49-.09-.72-.09-5.07-.05-10.15-.09-15.22-.12-.95,0-1.92,0-2.86.11-1.47.17-1.92.69-2.05,2.17-.04.41-.03.83-.03,1.24,0,14.38-.01,28.76-.02,43.14,0,5.72-.02,11.44.02,17.16,0,.32.38.92.59.92,1.33.02,2.66-.05,3.98-.17,1.11-.1,1.7-.78,1.78-1.88.07-.99.17-1.98.17-2.98-.01-6.67-.05-13.35-.07-20.02,0-.83.05-1.66.14-2.48.17-1.5.84-2.12,2.36-2.18,1.16-.05,2.33-.02,3.49-.07,1.32-.06,2.68-.29,3.4-1.49.9-1.51,1.59-3.15,2.46-4.91-.95-.07-1.68-.15-2.42-.16-2.79-.04-5.57-.06-8.36-.06-.63,0-1-.09-1-.87.03-6.09.02-12.19.03-18.28,0-.41.07-.82.14-1.23.16-.9.66-1.34,1.64-1.31,1.7.05,3.41.03,5.12.01,5.16-.04,5.75-1.55,7.43-6.43Zm-271.57,6.27c2.52,0,4.96,0,7.41,0,1.79,0,1.79.02,1.79,1.79.01,17.61,0,35.22.06,52.83.02,4.17-.15,3.51,3.71,3.57,2.81.05,2.81-.03,2.81-2.88,0-16.86-.01-33.73,0-50.59,0-.95.07-1.91.17-2.85.12-1.19.68-1.88,2.01-1.86,1.58.03,3.17.07,4.73-.13.94-.12,2.15-.41,2.67-1.08,1.16-1.48,1.95-3.24,3-5.06-.63-.07-.87-.12-1.11-.12-7.57-.04-15.13-.07-22.7-.09-.79,0-1.57.09-2.36.15-1.27.1-2.03.86-2.13,2.05-.13,1.38-.03,2.79-.03,4.26Z"/>
  <path d="m168.75,100.55c-.2,8.37-1.63,15.48-5.21,22-2.23,4.06-5.17,7.55-8.95,10.37-2.3,1.72-4.79,2.95-7.36,4.1-.88.39-1.22.92-1.24,1.89-.08,4.39-.16,8.78-1.26,13.07-1.41,5.49-3.79,10.46-7.51,14.82-2.84,3.34-6.41,5.76-10.22,7.58-3.74,1.79-7.71,3.29-11.95,3.69-1.03.1-2.05.33-3.06.58-2.54.63-4.76.01-6.79-1.55-.46-.35-.95-.66-1.43-.99-3.11-2.16-6-1.29-8.89.54-1.24.79-2.58,1.68-3.97,1.92-1.57.27-3.28-.07-4.91-.28-6.88-.88-13.17-3.35-18.78-7.38-3.77-2.71-6.89-6.14-9.14-10.23-2.11-3.83-3.61-7.91-4.12-12.27-.31-2.63-.5-5.28-.53-7.92-.02-2.03-.75-3.21-2.67-4.05-9.33-4.1-14.83-11.58-18.04-20.92-3.49-10.17-3.25-20.38.43-30.44,3.41-9.3,9.45-16.36,18.68-20.44.89-.39,1.38-.94,1.43-1.95.2-3.94.7-7.82,1.92-11.6,1.05-3.26,2.58-6.26,4.59-9.04,4.78-6.64,11.49-10.41,19.15-12.65,3.17-.93,6.47-1.43,9.73-2.03,1.67-.31,3.31-.05,4.84.78,1.02.55,2.11.98,3.12,1.55,1.58.89,3.21,1.1,4.91.45,1.16-.44,2.35-.87,3.4-1.51,1.96-1.19,3.98-1.41,6.22-1.11,4.96.68,9.81,1.75,14.42,3.7,8.56,3.62,14.67,9.75,17.99,18.39,1.6,4.17,2.49,8.59,2.38,13.12-.02.98.42,1.48,1.27,1.88,4.44,2.08,8.47,4.71,11.78,8.39,4.98,5.54,7.89,12.02,8.94,19.33.43,3.03.61,6.09.81,8.16Zm-134.32,12.08c.78-.86,1.29-1.49,1.87-2.06,6.86-6.7,13.74-13.38,20.6-20.08,3.62-3.54,7.2-7.13,10.8-10.69.62-.61,1.34-.97,2.03-.15.61.72.23,1.4-.35,1.96-3.95,3.86-7.91,7.71-11.88,11.55-.38.37-.91.57-1.42.87,3.59,3.39,6.8,6.39,9.98,9.43.69.66,1.73,1.54.75,2.5-.91.89-1.75-.14-2.41-.77-2.46-2.35-4.88-4.75-7.32-7.13q-2.35-2.29-4.62-.03c-.06.06-.12.12-.18.17-5.48,5.33-10.94,10.66-16.43,15.97-.62.6-.78,1.15-.47,1.98,1.65,4.3,3.91,8.19,7.1,11.57,3.14,3.33,6.96,5.6,11.09,7.42.36.16,1.1-.08,1.44-.39,2.58-2.35,5.07-4.78,7.65-7.13.68-.63.76-1,.07-1.67-3.04-2.95-6.03-5.95-9.04-8.92-.66-.66-1.24-1.47-.48-2.26.8-.82,1.45.12,1.98.6,2.64,2.4,5.23,4.86,7.83,7.3.6.57,1.14,1.23,1.81,1.7.26.18.97.12,1.2-.11,2.85-2.79,5.64-5.63,8.46-8.45.29-.29.6-.69.96-.76.58-.12,1.21,0,1.83,0-.11.57-.12,1.19-.37,1.69-.23.46-.72.79-1.11,1.16-6.08,5.89-12.15,11.81-18.27,17.66-1.3,1.24-1.99,2.56-1.85,4.37.16,1.98.09,3.98.27,5.95.61,6.48,2.67,12.45,6.71,17.63,2.74,3.51,6.08,6.34,10.17,8.2.3.14.89.03,1.14-.19.97-.84,1.85-1.79,2.78-2.67,2.06-1.93,4.12-3.86,6.2-5.76.45-.41.97-.86,1.61-.2.63.65.5,1.25-.06,1.85-.28.3-.57.61-.87.89-2.17,2.11-4.35,4.22-6.52,6.34-.37.36-.72.76-1.15,1.22.35.15.52.26.71.31,3.41.88,6.86,1.64,10.23,2.65,3.07.92,5.51-.14,7.89-1.86.8-.58,1.68-1.1,2.6-1.45.84-.32,1.09-.73,1.09-1.63,0-13.64.06-27.28.1-40.91,0-.27-.08-.53-.19-1.27-5.01,5.12-9.76,9.98-14.57,14.89.26.29.47.54.7.76,2.36,2.34,4.72,4.67,7.09,7,.51.5.71,1.01.11,1.6-.61.59-1.11.5-1.71-.07-2.13-2.04-4.32-4.02-6.44-6.06-.49-.47-.81-1.12-1.23-1.72-1.27,1.21-2.14,2.03-3.01,2.86-1.65,1.58-3.25,3.21-4.94,4.74-.9.82-1.69.67-2.18-.2-.45-.8.14-1.22.6-1.69,8.13-8.19,16.28-16.36,24.37-24.59.59-.59,1.14-1.54,1.15-2.33.09-6.34.06-12.69.04-19.03,0-.45-.15-.89-.23-1.34l-.47-.24c-.31.44-.56.95-.94,1.32-3.16,3.07-6.33,6.12-9.51,9.16-.95.91-1.5.89-2.12-.04-.58-.87.2-1.32.65-1.76,3.79-3.67,7.6-7.31,11.43-10.93.32-.3.84-.4,1.21-.56-2.61-2.65-4.76-4.83-6.9-7.03-.41-.41-.89-.81-1.13-1.31-.17-.37-.17-1.06.06-1.32.25-.28.9-.34,1.33-.26.36.07.69.44.98.72,2,1.93,4.02,3.85,5.97,5.83,1.11,1.13,2.34,1.78,3.98,1.66,1.28-.09,2.58.03,3.87-.04.36-.02.9-.31,1.02-.61.7-1.72,2.11-2.38,3.78-2.65,2.23-.35,4.37,1.06,5.08,3.3.66,2.07-.34,4.4-2.29,5.37-2.11,1.05-5.19.61-6-1.28-.78-1.82-1.98-1.76-3.43-1.72-.62.02-1.25.07-1.87,0-1.17-.11-1.56.3-1.55,1.52.04,9.99,0,19.98-.01,29.97,0,2.73,0,2.7,2.72,2.68,4.99-.03,9.98-.01,14.98-.01,1.01,0,1.91-.01,2.49-1.17.88-1.78,2.81-2.62,4.7-2.28,2.26.4,3.57,1.78,3.88,4.08.28,2.05-.63,3.83-2.44,4.75-2.34,1.19-5.36.43-6.13-1.69-.36-.99-.89-1.09-1.75-1.09-5.66.02-11.32.04-16.97-.01-1.13-.01-1.47.27-1.47,1.44,0,10.57-.05,21.14-.11,31.71,0,.77.26,1.07.99,1.28.9.26,1.85.59,2.57,1.15,2.65,2.04,5.45,3.26,8.88,2.3.67-.19,1.01-.39,1-1.13-.04-3.52-.01-7.05-.08-10.57,0-.37-.4-.92-.74-1.07-1.5-.63-2.19-1.86-2.58-3.3-.45-1.67.35-3.69,1.81-4.72,1.68-1.18,3.54-1.37,5.3-.4,3.06,1.7,2.95,6.29-.12,7.98-.82.45-1.19,1.02-1.19,1.97-.01,3.11-.1,6.22-.15,9.32,0,.26.07.52.11.82,3.55-.66,6.82-1.74,9.96-3.33,7.23-3.65,11.98-9.35,14.73-16.89,1.87-5.12,2.28-10.39,2.18-15.77-.03-1.41-.44-2.41-1.42-3.37-4.85-4.78-9.65-9.61-14.5-14.39-.27-.27-.91-.44-1.27-.32-2.42.77-5.09-.61-5.89-3.12-.77-2.45.71-5.32,3.18-5.9,1.72-.4,3.47-.26,4.69,1.19,1.3,1.53,1.87,3.29.98,5.31-.16.36-.2,1.01.01,1.24,1.51,1.64,3.13,3.18,4.68,4.79,3.19,3.33,6.35,6.68,9.51,10.02.61.65,1.26,1.11,2.18.61,2.04-1.11,4.18-2.07,6.1-3.36,7.15-4.83,11.2-11.71,13.02-20.02.2-.92-.08-1.06-.9-1.07-3.82-.03-7.65-.09-11.47-.19-.85-.02-1.33.15-1.71,1-.79,1.78-2.87,2.88-4.68,2.67-2.04-.24-3.66-1.53-4.11-3.3-.65-2.57.32-4.64,2.64-5.62,2.36-1,4.62-.28,5.98,2.01.45.75.95,1.01,1.79,1.02,3.83.01,7.65.07,11.48.12,1.69.02,1.71.02,1.85-1.67.5-6.1.47-12.16-1.19-18.13-.21-.74-.5-.9-1.18-.9-5.86,0-11.73,0-17.59-.1-1.46-.03-2.33.37-3.11,1.65-1.5,2.51-5.77,2.53-7.5.15-2.04-2.8-.93-6.29,2.35-7.44,1.95-.68,4.88.43,5.41,2.18.32,1.04.88,1.22,1.82,1.21,5.78-.03,11.56-.01,17.35-.01.4,0,.79,0,1.27,0-.04-.35-.02-.53-.09-.66-1.38-2.54-2.7-5.12-4.18-7.6-1.56-2.61-4-4.41-6.28-6.33-2.58-2.17-5.74-3.26-8.79-4.53-.18-.07-.41-.03-.62-.03-6.32,0-12.65,0-18.97-.05-.9,0-1.41.28-1.88,1.06-1.48,2.43-3.31,3.02-5.93,2.03-2-.75-2.99-2.41-2.82-4.72.15-2.02,1.54-3.79,3.23-4.1,2.4-.45,4.56.4,5.43,2.28.38.82.86,1.07,1.72,1.07,6.24-.04,12.48-.05,18.72-.07.15,0,.29-.09.42-.14.07-19.33-12.7-29.41-23.79-31.56,0,3.08.05,6.14-.03,9.2-.03,1.15.36,1.81,1.33,2.4,1.98,1.2,2.67,3.39,1.92,5.64-.67,2.02-2.59,3.22-4.88,3.07-2.08-.14-3.67-1.61-4.15-3.83-.44-2.05.61-4.15,2.64-5.1.65-.3.81-.66.8-1.33-.05-2.74-.05-5.47-.03-8.21.02-2.74.04-2.74-2.71-3.25-.2-.04-.41-.09-.61-.15-3.62-1-7.05-.77-10.23,1.43-.53.37-1.19.59-1.82.8-.68.23-.96.56-.96,1.34.04,9.91.07,19.82,0,29.73-.01,1.87.5,3.3,1.82,4.65,4.33,4.42,8.54,8.94,12.83,13.4.21.22.82.27,1.13.14,2.06-.82,4.51-.13,5.74,1.7,1.47,2.18,1.31,4.33-.47,6.07-1.47,1.44-3.88,1.79-5.53.81-1.99-1.18-3.08-3.41-2.36-5.24.37-.95.17-1.56-.46-2.22-2.17-2.23-4.34-4.47-6.5-6.71-2.22-2.3-4.49-4.55-6.6-6.95-.73-.83-1.07-.86-1.81-.13-5.25,5.14-10.53,10.25-15.81,15.36-1.26,1.22-1.45,1.2-2.78-.29.3-.36.59-.76.93-1.1,5.5-5.48,11.02-10.94,16.5-16.43.34-.34.62-.91.63-1.38.04-10.53.05-21.06,0-31.59,0-.44-.44-1.08-.85-1.28-1.78-.88-3.6-1.68-5.45-2.42-.75-.3-1.61-.53-2.4-.48-1.69.12-3.38.41-5.05.74-.35.07-.73.58-.86.97-.15.45-.03.98-.04,1.48-.02,6.3-.05,12.6-.02,18.9,0,.55.35,1.17.71,1.62,2.1,2.62,4.27,5.19,6.36,7.82.5.62,1.4,1.41.32,2.21-1.03.76-1.59-.28-2.11-.89-1.99-2.33-3.93-4.72-5.89-7.09-.2-.24-.45-.42-.69-.65-2.05,2.55-4.05,4.98-5.99,7.45-1.02,1.3-1.8,1.72-2.49,1.16-.79-.64-.64-1.28.5-2.64,2.11-2.51,4.21-5.02,6.27-7.57.36-.45.67-1.1.68-1.66.05-6.47.03-12.93.04-19.4,0-.88-.33-1.13-1.14-.8-2.45,1-4.97,1.87-7.35,3.02-8.41,4.05-13.75,10.68-15.95,19.69-.68,2.78-.59,5.75-1.12,8.58-.31,1.65.26,2.6,1.37,3.64,2.58,2.4,5.07,4.91,7.57,7.4.52.52,1.1,1.07.26,1.87-.77.73-1.3.38-1.9-.19-2.7-2.58-5.46-5.11-8.1-7.75-.87-.87-1.57-1-2.58-.36-.98.62-2.03,1.13-3.06,1.66-5.31,2.75-9.17,6.95-11.84,12.2-4.52,8.9-5.24,18.37-3.79,28.1.15,1.04.4,2.07.68,3.49Zm84.26-49.96c-1.43-.02-2.31.77-2.34,2.12-.03,1.44.77,2.35,2.11,2.39,1.25.04,2.59-.99,2.61-2,.02-1.6-.81-2.48-2.37-2.51Zm20.33,21.47c-1-.02-2.24,1.26-2.22,2.29.02,1.31,1.09,2.57,2.2,2.6,1.14.03,2.54-1.32,2.54-2.45,0-1.24-1.21-2.41-2.52-2.44Zm-20.27,4.42c1.24.03,2.24-.95,2.31-2.26.06-1.17-1.09-2.29-2.43-2.36-1.19-.06-2.32,1.1-2.36,2.42-.04,1.29.94,2.16,2.47,2.2Zm-2.56-41c-.03,1.24,1.06,2.37,2.29,2.4,1.37.04,2.28-.95,2.31-2.51.03-1.15-1.08-2.17-2.36-2.18-1.29-.02-2.21.93-2.24,2.29Zm32.88,61.84c-.02-1.31-1.3-2.29-2.89-2.2-.57.03-1.86,1.9-1.86,2.69,0,.84,1.48,2.06,2.51,2.06,1.33,0,2.26-1.06,2.24-2.55Zm-31.27,49.62c.02-.94-1.32-2.11-2.49-2.19-.91-.06-2.23,1.4-2.23,2.47,0,1.16.97,2.13,2.14,2.15,1.44.02,2.56-1.03,2.59-2.42Zm-3.97-58.39c-.01-1.65-.74-2.57-2.04-2.57-1.12,0-2.58,1.3-2.58,2.3,0,.94,1.45,2.35,2.39,2.33,1.39-.03,2.24-.81,2.23-2.06Zm13.71,15.94c0-1.6-.68-2.32-2.21-2.34-1.26-.02-2.47,1.2-2.44,2.46.02.75,1.6,2.14,2.45,2.16.96.02,2.2-1.27,2.2-2.29Zm-2.32,22.8c1.48.02,2.25-.91,2.25-2.73,0-.7-1.38-1.78-2.34-1.83-.95-.05-2.22,1.23-2.25,2.28-.04,1.35.89,2.26,2.33,2.28Z"/>
  <path d="m420.65,182.39v-77.86c.35-.03.75-.1,1.15-.1,4.53,0,9.07-.02,13.6.05,3.7.06,6.74,1.5,8.95,4.57,1.15,1.6,1.5,3.41,1.64,5.26.15,2.02.16,4.06.16,6.09.01,15.05.02,30.09,0,45.14,0,2.52-.04,5.06-.32,7.57-.63,5.51-4.05,9.14-10.54,9.22-4.07.05-8.15.05-12.23.06-.78,0-1.55,0-2.4,0Zm8.02-70.23c-.03.61-.07,1.01-.07,1.42,0,18.39,0,36.79.02,55.18,0,1.62.05,3.23.07,4.85,0,.72.31,1.06,1.05,1.04,1.12-.02,2.24.02,3.37,0,3.38-.08,4.93-1.58,5.12-4.93.02-.33.02-.66.02-.99,0-16.36,0-32.73.01-49.09,0-1.16.01-2.32-.04-3.48-.08-1.81-1.64-3.52-3.42-3.67-1.98-.16-3.97-.22-6.13-.32Z"/>
  <path d="m587.03,143.65c0,9.29.04,18.57-.02,27.86-.03,4.39-1.42,8.18-5.6,10.34-1.08.56-2.33.86-3.54,1.07-3.44.59-6.9.56-10.22-.64-2.71-.98-4.74-2.85-5.58-5.63-.56-1.84-.95-3.8-.96-5.71-.07-18.78-.04-37.55-.03-56.33,0-5.11,2.91-9.32,7.17-10.33,3.64-.86,7.26-1.07,10.98-.16,3.44.84,5.71,2.93,6.87,6.06.68,1.86.87,3.97.89,5.98.09,9.16.04,18.32.04,27.48Zm-8.15-.25s.06,0,.09,0c0-6.34.01-12.68,0-19.02,0-3.15,0-6.3-.17-9.44-.05-.97-.4-2.06-.96-2.85-1.06-1.5-3.71-1.91-5.84-1.14-1.78.64-2.93,2.42-2.93,4.62,0,18.36,0,36.71,0,55.07,0,.21-.05.43.02.62.44,1.22.6,2.7,1.42,3.59,1.52,1.66,3.64,1.68,5.67.89,1.88-.74,2.63-2.3,2.68-4.24,0-.33.03-.66.03-.99,0-9.03,0-18.06,0-27.1Z"/>
  <path d="m362.44,104.49h7.82c0,.98,0,1.87,0,2.77-.01,20.85,0,41.7-.06,62.56,0,1.94-.13,3.91-.52,5.8-.69,3.39-3.1,5.37-6.22,6.47-3.25,1.14-6.64,1.06-9.99.54-5.48-.85-8.55-4.1-8.75-9.63-.23-6.33-.15-12.68-.16-19.02,0-14.96,0-29.92.04-44.88.01-4.39.43-4.73,4.8-4.72q3.18,0,3.18,3.21c-.01,20.81-.03,41.62-.04,62.43,0,.54.01,1.08.04,1.62.19,3.62,4,5.7,7.24,3.97,1.45-.78,2.2-2.03,2.33-3.6.15-1.81.22-3.64.22-5.46.01-20.27,0-40.54,0-60.81,0-.37.04-.73.06-1.24Z"/>
  <path d="m206.87,158.55c0,1.49,0,2.71,0,3.94,0,3.03-.05,6.05.04,9.08.02.87.28,1.83.7,2.59.84,1.51,2.6,2.22,4.14,1.9,2.01-.42,3.48-1.73,3.59-3.77.33-5.95.9-11.96-1.96-17.55-1.45-2.84-3.01-5.62-4.48-8.45-2.72-5.26-5.45-10.51-8.11-15.8-1.22-2.43-1.9-5.06-1.89-7.78,0-3.52.02-7.05.33-10.54.31-3.62,3.83-7.26,7.73-8.09,3.32-.71,6.56-.7,9.72.28,2.74.85,4.74,2.9,5.75,5.52,1.09,2.82,1.64,5.86.68,8.87-.25.79-.87,1.65-1.57,2.07-1.87,1.13-3.87,2.05-5.98,3.13,0-.94,0-1.7,0-2.46-.02-2.11-.16-4.23-.03-6.34.1-1.69-.61-3.04-1.83-3.86-.84-.56-2.2-.61-3.29-.5-1.67.17-3.29,1.86-3.33,3.55-.08,3.59-.32,7.25.2,10.77.38,2.59,1.66,5.11,2.87,7.49,3.11,6.13,6.4,12.17,9.63,18.24,2.76,5.2,4.21,10.69,3.85,16.6-.15,2.55-.21,5.12-.51,7.66-.45,3.73-3.89,7.06-7.65,7.72-3.28.57-6.54.67-9.74-.35-3.15-1.01-5.36-3.22-6.21-6.31-1.14-4.15-.91-8.45-.33-12.7.17-1.23.93-1.96,2.06-2.43,1.79-.74,3.55-1.56,5.63-2.48Z"/>
  <path d="m450.41,45.96c.37-1.02.75-2.03,1.11-3.05,2.18-6.16,4.35-12.32,6.56-18.48.12-.33.5-.8.78-.81,1.97-.07,3.95-.04,6.07-.04-.32,1.03-.58,2.01-.93,2.97-1.37,3.81-2.77,7.62-4.15,11.43-1.57,4.36-3.1,8.73-4.72,13.07-.47,1.26-.36,2.4.03,3.62,3.11,9.64,6.2,19.3,9.29,28.95.42,1.32.87,2.64,1.37,4.17-2.27,0-4.28.03-6.3-.04-.24,0-.55-.55-.66-.9-2.67-8.65-5.32-17.31-7.98-25.97-.12-.38-.28-.74-.7-1.07-.04.56-.13,1.12-.13,1.67.03,8.37.06,16.74.11,25.11,0,.87-.27,1.29-1.22,1.26-1.73-.05-3.47-.01-5.31-.01-.02-.27-.07-.59-.07-.9,0-19.89,0-39.79,0-59.68,0-3.59.41-4.01,3.98-4.03.82,0,1.64,0,2.56,0v22.65c.1.03.2.06.3.09Z"/>
  <path d="m268.64,112.15c0-1.93-.1-3.71.03-5.47.1-1.31,1.08-2.1,2.47-2.2,1.28-.09,2.58-.07,3.86-.07,8.65,0,17.3.01,25.95.02.49,0,.99,0,1.66,0-.16.45-.24.75-.37,1.03-.62,1.31-1.31,2.59-1.85,3.93-.63,1.55-1.79,2.38-3.37,2.58-1.31.16-2.65.13-3.98.17-.87.03-1.75,0-2.62.07-1.97.18-2.56.76-2.66,2.72-.11,2.19-.19,4.39-.19,6.58,0,19.81,0,39.62.05,59.42,0,1.17-.39,1.53-1.51,1.47-1.41-.07-2.83,0-4.24-.04-1.62-.05-1.96-.34-2.05-1.99-.11-2.03-.14-4.06-.14-6.09,0-19.47.01-38.94.02-58.4,0-.87-.07-1.74-.05-2.61.02-.85-.34-1.16-1.2-1.14-2.79.03-5.57,0-8.36,0-.48,0-.97,0-1.45,0Z"/>
  <path d="m315.32,87.84c.63-4.12,1.21-7.96,1.79-11.8,1.46-9.61,2.91-19.23,4.37-28.84.86-5.69,1.74-11.37,2.61-17.06.29-1.92.61-3.84.87-5.77.12-.93.53-1.3,1.49-1.13.69.12,1.41.08,2.11.14,2.21.18,3.04.87,3.38,3.08,1.11,7.16,2.16,14.32,3.26,21.48,1.1,7.2,2.24,14.39,3.36,21.59.85,5.48,1.71,10.96,2.54,16.44.08.56.01,1.14.01,1.91-2.15,0-4.26.04-6.36-.05-.24-.01-.6-.69-.66-1.09-.41-3.12-.74-6.25-1.14-9.37-1.13-8.66-2.28-17.31-3.42-25.97-.26-1.97-.51-3.94-.79-5.91-.07-.47-.24-.93-.63-1.39-.07.29-.17.57-.21.86-1.03,7.96-2.05,15.93-3.08,23.89-.77,5.95-1.53,11.9-2.34,17.85-.06.41-.5,1.08-.79,1.09-2.06.09-4.13.05-6.38.05Z"/>
  <path d="m399.62,64.97c0,.92,0,1.6,0,2.29,0,3.86-.16,7.72.02,11.56.32,7.09-4.95,9.94-10.22,9.68-2.53-.12-5.05-.43-7.1-2.25-2.25-2-2.89-4.62-2.9-7.41-.04-15.84-.05-31.67,0-47.51.01-4.89,3.23-8.17,8.36-8.63,2.23-.2,4.49-.32,6.65.53,3.28,1.3,4.85,3.94,5.09,7.21.26,3.59.11,7.21.05,10.81-.02,1.33-.77,2.34-2,2.94-1.38.67-2.77,1.33-4.27,2.05-.04-.32-.1-.58-.1-.83-.02-4.39,0-8.79-.05-13.18-.03-2.35-1.82-3.94-4.22-3.91-1.69.02-3.08,1.8-3.07,4.02,0,8,.04,16,.05,24,0,6.84,0,13.68,0,20.52,0,.91.07,1.82.19,2.72.26,1.96,1.55,3.07,3.45,3.02,1.96-.05,3.48-1.36,3.57-3.27.14-3.02.19-6.05.22-9.07.02-1.85.8-3.02,2.59-3.63,1.2-.41,2.32-1.04,3.69-1.67Z"/>
  <path d="m205.59,68.11c0,3.58-.04,6.89.02,10.19.02.89.21,1.81.54,2.64.46,1.16,1.54,1.59,2.72,1.64,1.22.05,2.33-.28,2.95-1.46.25-.47.53-.98.57-1.49.37-4.8.7-9.64-1.26-14.21-1.01-2.35-2.35-4.56-3.53-6.84-2.44-4.71-4.97-9.37-7.24-14.15-.81-1.71-1.2-3.71-1.39-5.61-.24-2.46-.19-4.97-.06-7.45.22-4.34,2.89-8.06,7.61-8.6,2.52-.29,5.06-.41,7.49.64,3.35,1.44,4.77,4.16,5.12,7.6.05.45.1.91.13,1.36.19,2.73-.57,4.07-3.04,5.27-1.11.54-2.25,1.03-3.59,1.63,0-1.14.02-2.22,0-3.3-.04-1.53-.04-3.07-.19-4.59-.17-1.75-1.67-2.97-3.54-3.05-1.48-.06-2.94,1.1-3.14,2.79-.69,5.73-.35,11.22,2.73,16.44,3.25,5.52,6.05,11.32,8.99,17.03,1.27,2.47,1.88,5.15,1.84,7.92-.05,3.14-.03,6.31-.43,9.42-.42,3.29-3.03,5.57-6.27,6.24-2.58.53-5.12.43-7.66-.16-3.18-.74-5.73-3.76-5.99-7.43-.17-2.47-.09-4.97,0-7.45.05-1.41.75-2.51,2.15-3.08,1.37-.56,2.72-1.16,4.48-1.91Z"/>
  <path d="m499.77,104.49c1.69,0,3.32-.09,4.92.02,1.84.13,2.64.9,2.79,2.73.15,1.85.13,3.72.13,5.59,0,22.63,0,45.26.01,67.89,0,1.67,0,1.67-1.65,1.67-1.33,0-2.66.04-3.99.04-1.72,0-2.22-.47-2.26-2.22-.03-1.16.01-2.32,0-3.48-.01-23.92-.03-47.83-.04-71.75,0-.12.04-.24.08-.49Z"/>
  <path d="m575.55,49.1c.18-.37.46-.72.53-1.11,1.01-5.62,2-11.24,2.99-16.86.32-1.83.64-3.67,1.01-5.49.35-1.71.86-2.18,2.59-2.29,1.31-.08,2.62-.02,4.16-.02-.64,2.95-1.32,5.92-1.94,8.89-1.91,9.23-3.81,18.47-5.7,27.71-.13.64-.16,1.32-.16,1.97,0,8.16-.03,16.33.02,24.49,0,1.07-.24,1.52-1.37,1.43-1.07-.09-2.16-.02-3.24-.04-1.13-.02-1.79-.63-1.92-1.72-.11-.9-.16-1.82-.17-2.73-.01-6.63-.11-13.26.04-19.89.09-3.93-1.05-7.61-1.76-11.38-1.14-5.97-2.49-11.9-3.77-17.85-.73-3.4-1.47-6.79-2.2-10.19-.04-.2-.06-.4-.13-.92,1.81.14,3.54.14,5.2.48.56.12,1.19,1.05,1.35,1.72.57,2.33.97,4.7,1.41,7.06.73,3.99,1.46,7.98,2.14,11.97.26,1.5.37,3.03.55,4.54.12.07.23.14.35.21Z"/>
  <path d="m528.21,23.41c-1.68,4.88-2.27,6.38-7.43,6.43-1.71.01-3.41.04-5.12-.01-.98-.03-1.48.41-1.64,1.31-.07.41-.14.82-.14,1.23-.01,6.09,0,12.19-.03,18.28,0,.78.37.87,1,.87,2.79,0,5.57.02,8.36.06.73,0,1.47.09,2.42.16-.87,1.76-1.56,3.4-2.46,4.91-.72,1.21-2.08,1.43-3.4,1.49-1.16.06-2.33.03-3.49.07-1.52.06-2.19.68-2.36,2.18-.09.82-.14,1.65-.14,2.48.02,6.67.05,13.35.07,20.02,0,.99-.1,1.99-.17,2.98-.07,1.11-.67,1.78-1.78,1.88-1.32.12-2.66.19-3.98.17-.21,0-.59-.6-.59-.92-.03-5.72-.02-11.44-.02-17.16,0-14.38.01-28.76.02-43.14,0-.41-.01-.83.03-1.24.13-1.48.58-2,2.05-2.17.95-.11,1.91-.11,2.86-.11,5.07.03,10.15.08,15.22.12.24,0,.47.06.72.09Z"/>
  <path d="m256.64,29.68c0-1.47-.1-2.88.03-4.26.11-1.19.87-1.94,2.13-2.05.79-.06,1.57-.16,2.36-.15,7.57.02,15.13.06,22.7.09.24,0,.48.05,1.11.12-1.04,1.82-1.84,3.58-3,5.06-.52.66-1.73.96-2.67,1.08-1.56.19-3.15.16-4.73.13-1.33-.02-1.89.67-2.01,1.86-.09.95-.17,1.9-.17,2.85,0,16.86,0,33.73,0,50.59,0,2.84,0,2.92-2.81,2.88-3.85-.06-3.69.6-3.71-3.57-.07-17.61-.05-35.22-.06-52.83,0-1.77,0-1.78-1.79-1.79-2.44,0-4.89,0-7.41,0Z"/>
  <path class="cls-1" d="m34.42,112.63c-.28-1.43-.52-2.45-.68-3.49-1.45-9.73-.73-19.2,3.79-28.1,2.67-5.25,6.53-9.45,11.84-12.2,1.03-.53,2.09-1.04,3.06-1.66,1.02-.65,1.72-.51,2.58.36,2.65,2.64,5.4,5.17,8.1,7.75.6.57,1.13.92,1.9.19.84-.8.26-1.36-.26-1.87-2.5-2.49-4.99-4.99-7.57-7.4-1.12-1.04-1.68-1.99-1.37-3.64.53-2.83.44-5.8,1.12-8.58,2.2-9.01,7.54-15.64,15.95-19.69,2.38-1.15,4.9-2.01,7.35-3.02.81-.33,1.14-.08,1.14.8-.02,6.47,0,12.94-.04,19.4,0,.56-.31,1.21-.68,1.66-2.06,2.55-4.16,5.06-6.27,7.57-1.14,1.36-1.28,2.01-.5,2.64.7.56,1.47.15,2.49-1.16,1.94-2.47,3.94-4.9,5.99-7.45.24.23.5.41.69.65,1.96,2.36,3.89,4.75,5.89,7.09.52.61,1.08,1.65,2.11.89,1.08-.8.17-1.59-.32-2.21-2.09-2.63-4.26-5.19-6.36-7.82-.36-.45-.71-1.07-.71-1.62-.03-6.3,0-12.6.02-18.9,0-.5-.11-1.03.04-1.48.13-.39.51-.9.86-.97,1.67-.33,3.35-.62,5.05-.74.79-.06,1.65.18,2.4.48,1.85.73,3.67,1.53,5.45,2.42.41.2.84.84.85,1.28.04,10.53.04,21.06,0,31.59,0,.47-.29,1.04-.63,1.38-5.49,5.49-11,10.96-16.5,16.43-.34.34-.63.74-.93,1.1,1.34,1.49,1.52,1.51,2.78.29,5.28-5.11,10.56-10.22,15.81-15.36.74-.73,1.08-.69,1.81.13,2.11,2.39,4.38,4.65,6.6,6.95,2.16,2.24,4.33,4.48,6.5,6.71.64.65.83,1.27.46,2.22-.71,1.84.37,4.06,2.36,5.24,1.66.98,4.06.63,5.53-.81,1.78-1.74,1.94-3.89.47-6.07-1.23-1.83-3.68-2.52-5.74-1.7-.32.13-.92.08-1.13-.14-4.29-4.45-8.51-8.98-12.83-13.4-1.32-1.35-1.83-2.78-1.82-4.65.07-9.91.04-19.82,0-29.73,0-.78.28-1.12.96-1.34.63-.21,1.28-.43,1.82-.8,3.18-2.2,6.61-2.43,10.23-1.43.2.06.4.11.61.15,2.75.52,2.73.52,2.71,3.25-.02,2.74-.02,5.47.03,8.21.01.67-.15,1.03-.8,1.33-2.03.95-3.08,3.05-2.64,5.1.48,2.22,2.06,3.69,4.15,3.83,2.29.16,4.2-1.05,4.88-3.07.75-2.25.06-4.45-1.92-5.64-.97-.59-1.36-1.25-1.33-2.4.08-3.06.03-6.12.03-9.2,11.08,2.15,23.85,12.23,23.79,31.56-.13.04-.27.14-.42.14-6.24.02-12.48.03-18.72.07-.85,0-1.34-.25-1.72-1.07-.87-1.88-3.02-2.73-5.43-2.28-1.69.31-3.08,2.08-3.23,4.1-.17,2.31.82,3.97,2.82,4.72,2.62.98,4.45.4,5.93-2.03.47-.78.98-1.06,1.88-1.06,6.32.04,12.65.04,18.97.05.21,0,.44-.04.62.03,3.05,1.28,6.21,2.36,8.79,4.53,2.28,1.92,4.72,3.72,6.28,6.33,1.48,2.48,2.8,5.06,4.18,7.6.07.13.04.31.09.66-.48,0-.87,0-1.27,0-5.78,0-11.56-.01-17.35.01-.94,0-1.51-.17-1.82-1.21-.53-1.76-3.46-2.86-5.41-2.18-3.28,1.14-4.39,4.63-2.35,7.44,1.73,2.38,5.99,2.36,7.5-.15.77-1.29,1.65-1.68,3.11-1.65,5.86.1,11.73.09,17.59.1.68,0,.97.16,1.18.9,1.66,5.97,1.69,12.03,1.19,18.13-.14,1.69-.16,1.69-1.85,1.67-3.83-.05-7.65-.11-11.48-.12-.84,0-1.35-.26-1.79-1.02-1.35-2.29-3.62-3-5.98-2.01-2.32.98-3.29,3.05-2.64,5.62.45,1.76,2.06,3.06,4.11,3.3,1.81.21,3.89-.89,4.68-2.67.38-.85.86-1.03,1.71-1,3.82.1,7.65.16,11.47.19.82,0,1.1.15.9,1.07-1.82,8.31-5.87,15.19-13.02,20.02-1.91,1.29-4.06,2.25-6.1,3.36-.92.5-1.57.04-2.18-.61-3.17-3.35-6.33-6.7-9.51-10.02-1.54-1.61-3.16-3.16-4.68-4.79-.21-.23-.17-.89-.01-1.24.89-2.01.32-3.77-.98-5.31-1.23-1.45-2.98-1.6-4.69-1.19-2.47.58-3.95,3.45-3.18,5.9.79,2.51,3.47,3.89,5.89,3.12.36-.11.99.05,1.27.32,4.85,4.78,9.65,9.61,14.5,14.39.98.96,1.39,1.97,1.42,3.37.1,5.38-.31,10.65-2.18,15.77-2.75,7.53-7.5,13.24-14.73,16.89-3.14,1.59-6.42,2.67-9.96,3.33-.04-.29-.11-.56-.11-.82.05-3.11.14-6.22.15-9.32,0-.95.37-1.52,1.19-1.97,3.07-1.69,3.18-6.28.12-7.98-1.75-.98-3.62-.78-5.3.4-1.46,1.02-2.26,3.04-1.81,4.72.39,1.44,1.07,2.66,2.58,3.3.35.15.74.7.74,1.07.07,3.52.05,7.05.08,10.57,0,.74-.33.94-1,1.13-3.43.96-6.23-.26-8.88-2.3-.73-.56-1.68-.89-2.57-1.15-.74-.21-1-.51-.99-1.28.07-10.57.12-21.14.11-31.71,0-1.17.34-1.45,1.47-1.44,5.66.05,11.31.04,16.97.01.86,0,1.39.09,1.75,1.09.76,2.12,3.78,2.88,6.13,1.69,1.81-.92,2.72-2.69,2.44-4.75-.31-2.3-1.63-3.68-3.88-4.08-1.89-.34-3.82.5-4.7,2.28-.57,1.16-1.48,1.17-2.49,1.17-4.99,0-9.98-.02-14.98.01-2.72.02-2.73.05-2.72-2.68,0-9.99.05-19.98.01-29.97,0-1.23.39-1.63,1.55-1.52.62.06,1.25.01,1.87,0,1.45-.04,2.66-.1,3.43,1.72.81,1.89,3.89,2.33,6,1.28,1.95-.97,2.95-3.3,2.29-5.37-.71-2.24-2.85-3.65-5.08-3.3-1.68.26-3.08.93-3.78,2.65-.12.3-.66.59-1.02.61-1.29.07-2.58-.05-3.87.04-1.64.12-2.86-.53-3.98-1.66-1.95-1.98-3.97-3.9-5.97-5.83-.3-.29-.62-.66-.98-.72-.43-.08-1.08-.02-1.33.26-.24.26-.24.95-.06,1.32.24.5.72.9,1.13,1.31,2.14,2.19,4.3,4.38,6.9,7.03-.37.17-.89.26-1.21.56-3.83,3.62-7.65,7.26-11.43,10.93-.46.44-1.24.89-.65,1.76.62.92,1.16.95,2.12.04,3.18-3.04,6.36-6.09,9.51-9.16.38-.37.63-.87.94-1.32l.47.24c.08.45.23.89.23,1.34.02,6.34.05,12.69-.04,19.03-.01.79-.57,1.73-1.15,2.33-8.1,8.22-16.24,16.4-24.37,24.59-.46.47-1.05.89-.6,1.69.49.88,1.28,1.02,2.18.2,1.69-1.53,3.3-3.16,4.94-4.74.87-.83,1.74-1.66,3.01-2.86.42.6.74,1.24,1.23,1.72,2.12,2.04,4.31,4.02,6.44,6.06.6.57,1.1.66,1.71.07.6-.58.41-1.09-.11-1.6-2.36-2.33-4.73-4.67-7.09-7-.23-.23-.44-.48-.7-.76,4.8-4.91,9.56-9.77,14.57-14.89.11.73.19,1,.19,1.27-.04,13.64-.09,27.28-.1,40.91,0,.9-.25,1.31-1.09,1.63-.92.35-1.8.87-2.6,1.45-2.38,1.72-4.82,2.78-7.89,1.86-3.37-1.01-6.82-1.78-10.23-2.65-.19-.05-.36-.16-.71-.31.44-.46.78-.85,1.15-1.22,2.17-2.12,4.35-4.23,6.52-6.34.3-.29.58-.59.87-.89.56-.6.69-1.2.06-1.85-.64-.66-1.16-.21-1.61.2-2.08,1.9-4.15,3.83-6.2,5.76-.94.88-1.81,1.83-2.78,2.67-.26.22-.84.33-1.14.19-4.09-1.85-7.43-4.68-10.17-8.2-4.04-5.18-6.1-11.15-6.71-17.63-.19-1.98-.12-3.97-.27-5.95-.14-1.81.55-3.13,1.85-4.37,6.13-5.85,12.19-11.77,18.27-17.66.39-.38.88-.7,1.11-1.16.25-.5.26-1.12.37-1.69-.61-.01-1.24-.12-1.83,0-.36.07-.67.47-.96.76-2.82,2.82-5.61,5.66-8.46,8.45-.23.23-.94.29-1.2.11-.67-.47-1.2-1.13-1.81-1.7-2.6-2.44-5.19-4.9-7.83-7.3-.52-.48-1.18-1.43-1.98-.6-.76.79-.19,1.6.48,2.26,3.01,2.98,6,5.98,9.04,8.92.69.67.62,1.05-.07,1.67-2.57,2.35-5.07,4.79-7.65,7.13-.34.31-1.08.55-1.44.39-4.13-1.82-7.94-4.09-11.09-7.42-3.19-3.38-5.45-7.27-7.1-11.57-.32-.83-.15-1.38.47-1.98,5.49-5.31,10.96-10.65,16.43-15.97.06-.06.12-.12.18-.17q2.26-2.25,4.62.03c2.44,2.37,4.86,4.78,7.32,7.13.66.63,1.5,1.67,2.41.77.98-.96-.06-1.84-.75-2.5-3.17-3.04-6.39-6.05-9.98-9.43.5-.3,1.04-.51,1.42-.87,3.98-3.83,7.93-7.69,11.88-11.55.58-.56.96-1.24.35-1.96-.68-.81-1.4-.46-2.03.15-3.6,3.56-7.18,7.15-10.8,10.69-6.85,6.71-13.74,13.38-20.6,20.08-.58.57-1.09,1.2-1.87,2.06Z"/>
  <path class="cls-1" d="m118.68,62.67c1.56.03,2.4.91,2.37,2.51-.01,1.01-1.36,2.04-2.61,2-1.34-.04-2.14-.95-2.11-2.39.03-1.35.91-2.15,2.34-2.12Z"/>
  <path class="cls-1" d="m139.01,84.13c1.3.02,2.52,1.2,2.52,2.44,0,1.13-1.4,2.48-2.54,2.45-1.11-.02-2.18-1.28-2.2-2.6-.02-1.03,1.22-2.31,2.22-2.29Z"/>
  <path class="cls-1" d="m118.74,88.55c-1.53-.04-2.51-.91-2.47-2.2.04-1.32,1.17-2.47,2.36-2.42,1.33.06,2.49,1.19,2.43,2.36-.07,1.31-1.07,2.29-2.31,2.26Z"/>
  <path class="cls-1" d="m116.19,47.55c.03-1.36.95-2.3,2.24-2.29,1.28.02,2.39,1.03,2.36,2.18-.03,1.56-.94,2.55-2.31,2.51-1.24-.03-2.32-1.17-2.29-2.4Z"/>
  <path class="cls-1" d="m149.07,109.38c.02,1.5-.91,2.56-2.24,2.55-1.02,0-2.5-1.22-2.51-2.06,0-.79,1.29-2.66,1.86-2.69,1.59-.09,2.87.89,2.89,2.2Z"/>
  <path class="cls-1" d="m117.8,159.01c-.03,1.39-1.15,2.44-2.59,2.42-1.17-.02-2.13-.99-2.14-2.15,0-1.07,1.32-2.52,2.23-2.47,1.17.08,2.51,1.25,2.49,2.19Z"/>
  <path class="cls-1" d="m113.82,100.62c.01,1.24-.84,2.03-2.23,2.06-.94.02-2.39-1.39-2.39-2.33,0-1,1.47-2.3,2.58-2.3,1.3,0,2.02.92,2.04,2.57Z"/>
  <path class="cls-1" d="m127.54,116.56c0,1.02-1.24,2.31-2.2,2.29-.85-.02-2.43-1.41-2.45-2.16-.03-1.26,1.17-2.48,2.44-2.46,1.53.02,2.2.73,2.21,2.34Z"/>
  <path class="cls-1" d="m125.22,139.36c-1.44-.02-2.37-.93-2.33-2.28.03-1.05,1.29-2.33,2.25-2.28.96.05,2.34,1.13,2.34,1.83,0,1.82-.78,2.75-2.25,2.73Z"/>
  <path class="cls-1" d="m428.67,112.16c2.15.11,4.14.16,6.13.32,1.78.15,3.34,1.87,3.42,3.67.05,1.16.04,2.32.04,3.48,0,16.36,0,32.73-.01,49.09,0,.33,0,.66-.02.99-.19,3.35-1.74,4.84-5.12,4.93-1.12.03-2.24-.02-3.37,0-.74.01-1.05-.33-1.05-1.04-.01-1.62-.06-3.23-.07-4.85-.01-18.39-.02-36.79-.02-55.18,0-.41.04-.81.07-1.42Z"/>
  <path class="cls-1" d="m578.88,143.4c0,9.03,0,18.06,0,27.1,0,.33-.03.66-.03.99-.05,1.94-.8,3.51-2.68,4.24-2.03.79-4.15.77-5.67-.89-.81-.89-.98-2.37-1.42-3.59-.07-.19-.02-.41-.02-.62,0-18.36,0-36.71,0-55.07,0-2.2,1.15-3.98,2.93-4.62,2.13-.77,4.78-.36,5.84,1.14.56.79.91,1.88.96,2.85.16,3.14.16,6.29.17,9.44.02,6.34,0,12.68,0,19.02-.03,0-.06,0-.09,0Z"/>
</svg>