<?xml version="1.0" encoding="UTF-8"?>
<svg id="Camada_1" data-name="Camada 1" xmlns="http://www.w3.org/2000/svg" viewBox="0 0 614 200">
  <defs>
    <style>
      .cls-1 {
        fill: #fff;
      }
    </style>
  </defs>
  <path d="m614,1v199c-204.33,0-408.67,0-613,0,0-1.15.03-2.3.03-3.44,0-64.47,0-128.94,0-193.41,0-2.45-.31-2.12,2.1-2.12,202.75,0,405.5,0,608.25,0,.87,0,1.75-.02,2.62-.03ZM168.98,100.8c-.24-2.93-.33-5.88-.76-8.77-1.86-12.39-8.6-21.3-19.77-26.89-1.77-.88-2.4-1.99-2.44-3.92-.16-7.89-2.39-15.13-7.79-21.06-2.21-2.43-4.67-4.82-7.46-6.5-4.84-2.91-10.15-4.79-15.8-5.77-4.27-.74-8.28-1.3-12.15,1.51-1.89,1.37-4.24,1.26-6.38,0-.86-.5-1.8-.86-2.65-1.37-1.46-.88-3.02-1.11-4.68-.91-3.96.47-7.88,1.03-11.65,2.48-4.04,1.56-7.88,3.42-11.48,5.86-2.61,1.77-4.5,4.15-6.34,6.6-2.02,2.7-3.76,5.55-4.73,8.82-1.04,3.51-1.84,7.05-1.78,10.74.02,1.49-.5,2.54-2.05,3.16-1.57.62-3.06,1.49-4.47,2.43-3.88,2.58-7.01,5.88-9.67,9.73-3.78,5.47-5.73,11.56-6.46,18.04-.79,7.01-.3,13.94,1.9,20.74,1.46,4.53,3.75,8.6,6.65,12.26,3.17,3.99,7.11,7.21,12.02,8.97,1.65.59,2.12,1.58,2.13,3.26.03,5.89.48,11.69,2.99,17.21,1.81,3.98,4.18,7.43,7.21,10.56,5.29,5.46,11.95,8.22,19.11,10.01,2.04.51,4.18.61,6.28.92,2.08.31,3.91-.15,5.62-1.41,1.09-.8,2.35-1.38,3.58-1.98,1.21-.58,2.47-.67,3.7.03,1.15.65,2.38,1.19,3.46,1.94,1.79,1.23,3.75,1.9,5.88,1.55,3.71-.61,7.41-1.17,11.05-2.29,4.31-1.32,8.11-3.55,11.51-6.22,5.39-4.23,9.11-9.81,10.97-16.51,1.34-4.83,1.76-9.77,1.66-14.76-.02-1.11.32-1.73,1.36-2.19,2.53-1.12,4.99-2.31,7.25-4.02,5.67-4.29,9.43-9.84,11.71-16.46,1.76-5.1,2.47-10.38,2.44-15.78Zm251.57,81.56c.23.11.3.18.37.18,5.03.02,10.06.12,15.09,0,3.09-.07,5.79-1.15,7.81-3.72,2.08-2.67,2.43-5.75,2.43-8.93.02-15.05,0-30.1,0-45.15,0-3.4.07-6.8,0-10.2-.1-5.38-4.18-9.83-9.54-10.09-5.23-.25-10.47-.13-15.71-.17-.14,0-.29.12-.46.19v77.88Zm166.52-38.74c0-9.41.01-18.81-.01-28.22,0-1.36-.03-2.75-.29-4.08-.68-3.49-3.03-6.13-6.43-7.07-3.9-1.08-7.9-1.15-11.85-.25-2.46.56-4.5,1.84-5.92,4.02-1.53,2.35-1.74,4.94-1.74,7.62.04,18.23.09,36.47.08,54.7,0,2.04.04,4.04.67,6,.98,3.08,2.95,5.25,6.03,6.23,3.8,1.21,7.69,1.22,11.58.41.68-.14,1.4-.28,2-.61,3.86-2.06,5.85-5.31,5.86-9.66.04-9.7.01-19.39.01-29.09Zm-224.79-39.23c0,.89,0,1.67,0,2.45-.01,21.01-.02,42.03-.07,63.04,0,1.22-.22,2.48-.62,3.63-.59,1.68-2.75,2.79-4.44,2.52-2.95-.47-4.03-1.42-4.25-3.83-.12-1.24-.17-2.48-.17-3.72-.01-15.21,0-30.42,0-45.63,0-5.72-.03-11.44.02-17.16,0-1.04-.36-1.43-1.34-1.4-1.45.05-2.91.04-4.36.13-1.47.09-2.18.75-2.37,2.23-.15,1.19-.21,2.4-.21,3.59-.01,10.9-.02,21.8,0,32.7.03,10.44.1,20.88.2,31.33.01,1.05.15,2.22.61,3.14,1.61,3.18,4.31,5.01,7.85,5.38,2.23.23,4.48.21,6.73.21,3.51,0,6.34-1.46,8.46-4.23.62-.81,1.31-1.72,1.48-2.68.36-2.03.55-4.11.55-6.17.04-15.71.02-31.42.02-47.12,0-5.76.01-11.52-.02-17.28,0-.38-.36-1.07-.58-1.08-2.44-.08-4.88-.05-7.49-.05Zm-147.05,20.1c2.51-1.41,4.73-2.59,6.89-3.89,1.06-.64,1.49-1.75,1.51-2.97.02-1.28.09-2.58-.02-3.85-.19-2.22-.33-4.54-2.11-6.18-1.38-1.27-2.78-2.87-4.46-3.4-2.28-.71-4.84-.72-7.27-.68-1.75.03-3.65.28-5.19,1.03-3.63,1.77-5.51,4.92-5.7,8.96-.12,2.57-.18,5.14-.14,7.71.05,3.24.21,6.52,1.71,9.46,3.71,7.27,7.36,14.57,11.39,21.66,3.57,6.29,3.91,12.98,3.39,19.86-.18,2.31-2.12,3.85-4.3,3.87-1.87.01-3.64-1.63-3.75-3.94-.19-4.22-.14-8.45-.2-12.67,0-.31,0-.62,0-1.09-2.04.87-3.89,1.69-5.76,2.42-1.2.47-1.99,1.25-2.08,2.53-.18,2.6-.42,5.2-.39,7.8.04,2.95.01,5.9,2.18,8.43,1.12,1.31,2.42,2.37,3.86,2.9,2.97,1.1,6.14,1.17,9.34.88,5.97-.55,10-5.56,9.58-10.94-.26-3.3-.01-6.63-.07-9.95-.02-1.15-.17-2.31-.4-3.44-.76-3.78-2.53-7.17-4.3-10.55-3.29-6.27-6.68-12.49-9.88-18.81-.9-1.78-1.65-3.78-1.84-5.73-.3-3.07-.14-6.2-.05-9.3.06-2.07,2.03-3.82,4.04-3.8,2.06.01,3.99,1.68,4.06,3.77.09,2.77-.02,5.55-.04,8.33,0,.39,0,.79,0,1.6Zm235-63.89c.1-.02.2-.03.3-.05.54,1.97,1.02,3.96,1.63,5.91,2.14,6.87,4.34,13.72,6.47,20.59.23.74.58,1.02,1.31,1,1.5-.03,2.99-.02,4.49-.03,1.72-.01,1.78-.05,1.27-1.66-3.24-10.21-6.45-20.43-9.82-30.6-.71-2.14-.77-4.02,0-6.12,2.92-7.83,5.73-15.7,8.57-23.56.33-.9.59-1.83.92-2.86-2.38,0-4.49-.04-6.6.04-.34.01-.83.53-.97.91-1.9,5.25-3.75,10.52-5.6,15.78-.6,1.72-1.16,3.46-1.81,5.43-.1-.34-.12-.38-.12-.42-.01-6.96-.02-13.92-.06-20.89,0-.34-.35-.96-.54-.96-1.49-.02-2.98.05-4.47.16-.92.07-1.4.69-1.49,1.57-.12,1.19-.25,2.39-.25,3.59-.01,17.86,0,35.73,0,53.59,0,1.94,0,3.87,0,5.96,1.9,0,3.68-.02,5.45,0,.96.02,1.34-.42,1.33-1.36-.03-2.24-.01-4.48-.01-6.71,0-6.45,0-12.9,0-19.35Zm-147.29,43.89c-.72-.08-1.24-.19-1.76-.19-8.86-.01-17.71-.01-26.57,0-1.12,0-2.25.02-3.36.12-1.92.17-2.55.8-2.7,2.72-.11,1.32-.08,2.65-.2,3.97-.09.93.3,1.13,1.14,1.12,2.79-.03,5.57,0,8.36.01,1.73,0,1.73,0,1.73,1.69,0,21.3,0,42.6.01,63.9,0,.99.1,1.99.23,2.97.11.92.62,1.54,1.62,1.59,1.49.07,2.99.13,4.48.16,1.72.04,1.75,0,1.81-1.67,0-.21,0-.41,0-.62,0-18.81-.02-37.62-.02-56.44,0-2.9,0-5.8.06-8.7.04-2.09.55-2.69,2.63-2.81,2.03-.12,4.09.13,6.1-.09,1.16-.12,2.71-.54,3.28-1.37,1.29-1.88,2.08-4.1,3.16-6.36Zm25.3-59.21s.1,0,.15,0c.13.98.25,1.97.38,2.95.99,7.3,1.98,14.61,2.96,21.91.75,5.54,1.5,11.08,2.21,16.63.13,1,.59,1.32,1.55,1.29,1.41-.05,2.83,0,4.24.01,1.85.03,1.91.02,1.63-1.88-1.33-8.88-2.69-17.76-4.04-26.64-.96-6.3-1.92-12.6-2.89-18.9-.71-4.66-1.4-9.33-2.17-13.99-.41-2.5-1.43-3.36-3.89-3.53-.79-.05-1.58,0-2.37-.07-.85-.08-1.17.27-1.29,1.09-.35,2.5-.78,4.99-1.16,7.48-.89,5.77-1.78,11.53-2.65,17.3-.6,4.01-1.13,8.03-1.74,12.04-.81,5.32-1.66,10.63-2.5,15.94-.52,3.31-.95,6.64-1.58,9.92-.2,1.06.08,1.24.99,1.22,1.62-.03,3.25-.11,4.86,0,1.25.08,1.67-.4,1.82-1.57.56-4.48,1.2-8.95,1.8-13.42.91-6.85,1.79-13.71,2.69-20.57.32-2.41.66-4.82.98-7.23Zm64.61,1.5c1.57-.75,2.8-1.43,4.09-1.94,2.13-.85,2.87-2.49,2.88-4.61.01-3.03.06-6.05,0-9.08-.02-1.06-.16-2.18-.54-3.16-.75-1.94-1.68-3.77-3.88-4.58-3.02-1.12-6.06-1.12-9.2-.69-2.49.35-4.19,1.65-5.48,3.66-1.02,1.59-1.36,3.36-1.36,5.21,0,7.83,0,15.67,0,23.5,0,8.37-.01,16.74,0,25.12,0,3.93,2.63,7.38,6.33,7.99,2.11.35,4.33.52,6.45.27,3.87-.45,7.29-2.88,7.5-7.3.16-3.43.15-6.87.2-10.3.02-1.98,0-3.96,0-6.24-1.39.58-2.59,1.21-3.87,1.59-2.15.64-2.89,2.13-2.91,4.18-.04,2.94-.07,5.88-.16,8.82-.07,1.98-1.3,3.21-3.15,3.32-1.7.1-3.17-1.19-3.4-3.1-.15-1.27-.2-2.56-.2-3.84-.02-12.97-.02-25.94-.03-38.92,0-1.57-.02-3.15.05-4.72.09-2.23,1.58-3.54,3.72-3.36,1.75.15,3.11,1.69,3.13,3.71.04,3.9.02,7.79,0,11.69,0,.81-.09,1.63-.16,2.78Zm-187.2,21.14c-1.65.72-3.1,1.4-4.58,1.97-1.36.53-2.12,1.51-2.15,2.9-.06,2.89-.05,5.79.05,8.68.03.88.3,1.83.73,2.6,1.45,2.64,3.71,4.27,6.76,4.33,2.6.05,5.39.28,7.75-.55,2.95-1.03,4.92-3.64,5.16-6.92.24-3.29.14-6.62.08-9.92-.04-2.47-.74-4.82-1.88-7.02-2.83-5.44-5.46-10.99-8.59-16.25-2.99-5.04-3.73-10.36-3.26-16,.16-1.94,1.69-3.27,3.49-3.17,1.97.1,3.12,1.3,3.19,3.39.05,1.74.04,3.48.06,5.22,0,.77,0,1.53,0,2.48,1.58-.8,2.96-1.51,4.35-2.2,2.04-1.01,2.79-2.73,2.73-4.89-.02-.66-.08-1.32-.14-1.98-.36-3.99-2.75-7.14-6.73-7.84-2.41-.43-4.78-.39-7.18.08-3.49.68-5.89,2.77-6.32,6.27-.39,3.14-.31,6.35-.34,9.53-.02,2.34.37,4.6,1.5,6.71,3.06,5.74,5.9,11.59,9.12,17.23,3.07,5.37,3.4,11.08,2.86,16.96-.17,1.91-1.77,3.11-3.51,3.03-1.66-.08-3.02-1.57-3.11-3.46-.06-1.2-.04-2.4-.04-3.6,0-2.43,0-4.87,0-7.56Zm373.44,19.99v-1.52c0-7.54,0-15.08,0-22.63,0-.78,0-1.58.15-2.35.64-3.46,1.27-6.92,2-10.36,1.7-8.01,3.46-16.01,5.17-24.02.29-1.34.43-2.71.62-3.94-1.71,0-3.2-.02-4.69,0-1.27.02-2.07.53-2.31,1.91-.96,5.5-1.98,10.99-2.99,16.48-.43,2.33-.88,4.66-1.33,7.04-.16-.12-.27-.16-.27-.21-.54-3.43-1.03-6.86-1.61-10.28-.68-3.99-1.39-7.99-2.23-11.95-.2-.93-.79-2.14-1.55-2.53-1.76-.89-3.75-.41-5.8-.37.81,3.82,1.58,7.37,2.33,10.92,1.33,6.27,2.57,12.56,4,18.81,1.24,5.39,1.94,10.79,1.73,16.35-.2,5.34-.03,10.69-.01,16.03,0,1.59.66,2.43,2.25,2.58,1.43.14,2.89.03,4.55.03Zm-79.45,16.51c0,.36,0,.77,0,1.17,0,21.84-.01,43.69-.02,65.53,0,2.94,0,5.89.03,8.83.02,1.74.76,2.49,2.5,2.58,1.12.05,2.25.03,3.37.03,2.21-.01,2.21-.02,2.22-2.2,0-11.15.01-22.3,0-33.45,0-13.1-.01-26.19-.04-39.29,0-1.99-.92-3.03-2.89-3.17-1.65-.12-3.31-.02-5.18-.02Zm28.97-81.3c-6.22,0-12.27,0-18.33,0-.41,0-.82.13-1.23.17-1.12.11-1.59.81-1.65,1.83-.09,1.36-.18,2.73-.18,4.1-.01,16,0,32,0,47.99,0,3.27.03,6.55,0,9.82,0,.75.24,1.06,1.01,1.01.87-.05,1.75-.02,2.62-.04,2.16-.04,3.05-.87,3.11-3.02.08-2.94.14-5.88.16-8.82.03-5.14.01-10.28.03-15.42,0-2.02.25-2.27,2.29-2.39,1.12-.07,2.28.17,3.36-.06,1.2-.26,2.71-.57,3.39-1.42,1.21-1.5,1.9-3.42,2.95-5.44h-12.02c0-2.87,0-5.55,0-8.23,0-3.69-.01-7.38.04-11.06.02-1.84.51-2.27,2.32-2.27,1.87,0,3.76.15,5.61-.05,1.35-.14,2.96-.39,3.92-1.22,1.57-1.35,2.05-3.48,2.61-5.48Zm-243.69-.03c-.78,0-1.56,0-2.34,0-7.44,0-14.89,0-22.33.02-.7,0-1.45,0-2.08.26-.53.22-1.22.74-1.31,1.23-.29,1.45-.34,2.95-.44,4.43-.05.69.43.75,1,.75,2.29-.02,4.58.08,6.86,0,1.23-.04,1.49.38,1.49,1.56-.03,17.95,0,35.9.02,53.85,0,.45.01.91.08,1.36.12.8.43,1.36,1.43,1.34,1.33-.03,2.66.08,3.98.13.81.03,1.26-.32,1.25-1.17,0-.37.01-.75.01-1.12,0-17.41,0-34.82,0-52.23,0-.62,0-1.24.04-1.86.09-1.32.52-1.78,1.83-1.83,1.16-.04,2.33,0,3.49,0,3.78-.03,6.7-2.82,7.02-6.71Z"/>
  <path class="cls-1" d="m614,1c-.87,0-1.75.03-2.62.03-202.75,0-405.5,0-608.25,0-2.41,0-2.1-.33-2.1,2.12,0,64.47,0,128.94,0,193.41,0,1.15-.02,2.3-.03,3.44h-1V0h614v1Z"/>
  <path class="cls-1" d="m168.98,100.8c.03,5.41-.68,10.68-2.44,15.78-2.29,6.61-6.04,12.17-11.71,16.46-2.26,1.71-4.73,2.89-7.25,4.02-1.04.46-1.38,1.08-1.36,2.19.1,4.99-.32,9.92-1.66,14.76-1.86,6.7-5.58,12.28-10.97,16.51-3.4,2.67-7.2,4.9-11.51,6.22-3.64,1.12-7.34,1.69-11.05,2.29-2.12.35-4.08-.32-5.88-1.55-1.08-.75-2.31-1.29-3.46-1.94-1.23-.7-2.49-.61-3.7-.03-1.23.59-2.49,1.18-3.58,1.98-1.72,1.26-3.55,1.72-5.62,1.41-2.09-.31-4.24-.41-6.28-.92-7.16-1.8-13.82-4.55-19.11-10.01-3.03-3.13-5.4-6.58-7.21-10.56-2.51-5.53-2.95-11.32-2.99-17.21,0-1.67-.48-2.67-2.13-3.26-4.91-1.75-8.85-4.98-12.02-8.97-2.91-3.66-5.19-7.73-6.65-12.26-2.19-6.8-2.69-13.72-1.9-20.74.73-6.48,2.67-12.57,6.46-18.04,2.66-3.85,5.79-7.15,9.67-9.73,1.41-.94,2.9-1.81,4.47-2.43,1.55-.61,2.08-1.66,2.05-3.16-.05-3.69.75-7.23,1.78-10.74.96-3.27,2.7-6.12,4.73-8.82,1.84-2.45,3.72-4.83,6.34-6.6,3.6-2.44,7.44-4.3,11.48-5.86,3.77-1.45,7.69-2.01,11.65-2.48,1.66-.2,3.22.04,4.68.91.85.51,1.8.87,2.65,1.37,2.14,1.26,4.49,1.38,6.38,0,3.87-2.8,7.87-2.25,12.15-1.51,5.65.98,10.96,2.86,15.8,5.77,2.79,1.68,5.25,4.07,7.46,6.5,5.4,5.93,7.63,13.17,7.79,21.06.04,1.93.67,3.04,2.44,3.92,11.17,5.58,17.91,14.5,19.77,26.89.43,2.9.52,5.85.76,8.77Zm-92.5,72.07c.04.17.09.34.13.52,3.46.83,6.96,1.5,10.35,2.53,2.72.82,4.86-.04,7-1.49.99-.67,2.02-1.34,3.13-1.77.96-.37,1.21-.88,1.21-1.84-.04-13.6-.05-27.19-.08-40.79,0-.09-.12-.19-.19-.28.1.12.21.24.31.36-4.55,4.36-9.1,8.73-13.68,13.06-.61.58-.63.9-.04,1.48,2.38,2.31,4.7,4.68,7.07,7.01.55.54.84,1.04.22,1.69-.62.66-1.34.9-2.07.21-1.54-1.44-3.05-2.92-4.56-4.39-1.06-1.04-2.11-2.09-3.49-3.48-1.71,1.84-3.31,3.62-4.97,5.35-.83.86-1.75,1.65-2.68,2.41-.8.65-1.38.09-1.92-.48-.52-.55-.33-1.01.15-1.5,5.14-5.19,10.25-10.41,15.4-15.6,3.19-3.21,6.45-6.35,9.6-9.59.51-.53.84-1.46.85-2.21,0-6.09-.08-12.19-.15-18.28,0-.44-.04-.87-.08-1.61-.63.67-1.04,1.16-1.51,1.59-3.08,2.85-6.19,5.66-9.23,8.53-.73.69-1.3.73-2.02.09-.75-.67-.4-1.28.11-1.82,1.2-1.26,2.42-2.5,3.67-3.72,2.9-2.83,5.82-5.65,8.84-8.57-.32-.25-.59-.44-.83-.67-2.14-2.14-4.3-4.27-6.41-6.45-.56-.59-1.11-1.35-.42-2.2.46-.56,1.74-.34,2.48.34.12.11.22.25.34.36,2.1,2.07,4.17,4.17,6.34,6.17.6.55,1.48,1,2.27,1.08,1.56.16,3.16.08,4.73,0,.39-.02,1.01-.4,1.09-.72.66-2.51,5.42-3.14,7.24-1.75,1.58,1.2,2.38,3.46,1.86,5.32-.52,1.84-2.31,3.3-4.29,3.48-2.14.2-3.79-.68-4.76-2.62-.34-.67-.73-1.03-1.52-.97-1.04.07-2.08.12-3.12.03-1.29-.11-1.52.49-1.49,1.61.07,2.32.03,4.64.03,6.96,0,8-.01,16-.02,24,0,.66-.15,1.32.93,1.31,5.78-.03,11.56-.02,17.35-.01.83,0,1.24-.39,1.61-1.1.31-.59.78-1.21,1.35-1.55,2.91-1.72,7.16-.89,7.67,3.84.22,2.03-1.48,4.21-3.73,4.84-2.3.65-4.44-.2-5.33-2.25-.37-.86-.91-1.03-1.73-1.03-5.7.02-11.4,0-17.1.02-.32,0-.64.06-1.02.09,0,1.02,0,1.96,0,2.91,0,9.87,0,19.73-.03,29.6,0,.95.28,1.38,1.19,1.68.96.32,1.91.81,2.74,1.41,2.41,1.73,4.92,2.88,7.98,1.94.63-.19,1.05-.34,1.05-1.1-.02-3.44.02-6.88-.02-10.32,0-.36-.33-.96-.62-1.04-1.3-.38-1.79-1.45-2.29-2.48-1.07-2.22.01-5.11,2.33-6.21,1.82-.86,4.92-.87,6.27,1.75,1.33,2.59.81,5.05-1.69,6.51-.89.52-1.26,1.13-1.22,2.19.09,2.28.03,4.56.04,6.84,0,.85,0,1.7,0,2.7.95-.24,1.71-.43,2.46-.61,7.64-1.78,13.75-5.86,18.19-12.29,4.08-5.91,5.67-12.67,5.93-19.72.19-5.16.67-4.09-3.34-8.2-3.77-3.86-7.7-7.57-11.47-11.43-.98-1-1.76-1.6-3.35-1.25-2.16.48-4.68-1.67-5.04-3.88-.55-3.41,2.27-6.23,5.69-5.68,2.6.42,4.73,3.07,3.98,5.29-.53,1.55-.43,2.46.88,3.61,1.95,1.71,3.58,3.79,5.38,5.69,2.54,2.68,5.12,5.32,7.66,8,.71.75,1.37.94,2.28.34.76-.5,1.61-.86,2.43-1.26,3.79-1.87,6.99-4.57,9.63-7.77,2.61-3.17,4.44-6.88,5.55-10.89.34-1.22.68-2.43,1.12-4.02-4.14,0-8,.03-11.85-.02-1.01-.02-1.63.21-2.19,1.14-1.25,2.08-3.56,2.88-5.69,2.17-2.49-.82-3.49-2.29-3.39-4.94.09-2.26,1.27-3.77,3.6-4.29,1.8-.4,4.38-.27,5.42,1.95.46.98,1.15,1.25,2.17,1.25,3.08.01,6.15.13,9.23.16,3.43.03,3.41,0,3.6-3.46.29-5.33-.13-10.59-1.32-15.79-.19-.83-.58-1-1.37-1-5.99,0-11.98,0-17.97-.08-.91-.01-1.47.2-1.9,1.01-1,1.93-2.69,2.56-4.78,2.47-2.86-.13-4.16-2.39-4.35-4.33-.23-2.37.81-4.78,3.75-5.31,2.13-.38,4.9.78,5.36,2.45.24.86.68.99,1.42.98,5.28-.02,10.56-.01,15.85-.01.82,0,1.64,0,2.54,0-.05-.29-.03-.47-.1-.6-1.45-2.55-2.8-5.16-4.38-7.64-1.9-2.99-4.76-5.06-7.6-7.05-1.68-1.18-3.65-1.96-5.54-2.83-.73-.34-1.57-.59-2.36-.59-6.11-.04-12.23,0-18.34-.03-.94,0-1.46.4-2.05,1.1-.72.85-1.63,1.72-2.64,2.11-1.84.7-3.68.16-5.06-1.18-1.4-1.36-1.45-3.17-.97-4.98.41-1.54,2.05-3.04,3.46-3.2,2.63-.3,4.39.44,5.27,2.31.41.86.92,1.19,1.91,1.18,5.7-.05,11.4-.03,17.1-.02.44,0,.88,0,1.42,0,0-9.31-2.73-17.44-9.37-23.86-3.88-3.75-8.57-6.34-13.96-7.71,0,3.07.13,5.89-.05,8.68-.1,1.47.36,2.24,1.57,2.98,2.23,1.34,2.63,4.01,1.15,6.57-1.11,1.91-4.04,2.83-6.02,1.88-1.82-.87-2.77-2.35-2.83-4.34-.06-1.97.73-3.59,2.49-4.55.79-.43,1.01-.9.99-1.74-.06-2.82-.12-5.64-.01-8.46.05-1.37-.38-1.91-1.75-2.2-4.11-.87-7.99-1.06-11.93,1.12-1.85,1.02-2.37,1.88-2.34,3.89.14,9.2.11,18.41.06,27.61-.01,1.86.5,3.33,1.8,4.68,4.28,4.46,8.48,9,12.73,13.48.17.18.66.21.93.11,2.17-.76,4.58-.11,5.82,1.61,1.5,2.06,1.44,4.12-.16,6.13-1.3,1.63-3.99,2.18-5.78,1.19-2.12-1.18-3.3-3.68-2.55-5.64.32-.84.21-1.41-.47-1.95-.39-.31-.73-.68-1.08-1.03-4.29-4.36-8.58-8.73-12.94-13.17-2.96,2.87-5.93,5.77-8.92,8.64-2.66,2.55-5.35,5.08-8.04,7.6-.84.78-1.58.16-2.21-.33-.76-.58-.03-1.02.31-1.41,1.03-1.19,2.04-2.41,3.16-3.51,1.6-1.57,3.33-3,4.94-4.56,2.86-2.78,5.7-5.58,8.48-8.43.46-.47.82-1.24.86-1.89.1-1.57-.04-3.15-.05-4.72-.02-8.71-.02-17.41-.03-26.12,0-.67.04-1.25-.83-1.56-1.6-.57-3.15-1.25-4.69-1.96-1.23-.57-2.45-1.01-3.83-.77-1.23.22-2.45.49-3.69.59-1.06.08-1.24.6-1.24,1.53.01,6.22,0,12.44-.06,18.65-.02,1.3.31,2.29,1.3,3.17.83.74,1.57,1.61,2.25,2.49,1.38,1.77,2.75,3.54,3.99,5.4.29.43.07,1.19.08,1.8-.7-.06-1.46.03-2.08-.23-.48-.2-.78-.83-1.15-1.28-1.72-2.13-3.45-4.25-5.14-6.4-.6-.76-.87-.66-1.43.12-1.75,2.42-3.6,4.76-5.45,7.09-.29.37-.78.8-1.18.8-.56,0-1.5-.27-1.59-.6-.16-.6-.01-1.51.37-1.99,2.1-2.63,4.27-5.19,6.49-7.71.62-.71.91-1.41.9-2.33-.03-6.09-.03-12.19-.04-18.28,0-.43-.06-.86-.1-1.4-1.18.39-2.19.72-3.2,1.07-9.35,3.17-16,9.19-19.62,18.44-1.61,4.12-2.13,8.41-2.2,12.78,0,.6.41,1.34.85,1.8,2.65,2.75,5.36,5.44,8.05,8.16.59.6,1.28,1.19.39,2.07-.78.76-1.46.69-2.24-.07-2.78-2.68-5.63-5.28-8.4-7.97-.59-.57-1.05-.77-1.84-.41-6.86,3.14-12.05,7.99-15.34,14.8-3.48,7.21-4.54,14.84-3.93,22.74.18,2.32.59,4.63.91,7.05.34-.17.46-.2.54-.28,6.31-6.19,12.61-12.39,18.94-18.56,3.03-2.96,6.14-5.83,9.18-8.78,1.58-1.53,3.08-3.14,4.61-4.72.61-.62,1.21-.77,1.96-.16.76.61.52,1.25.15,1.87-.27.45-.65.86-1.04,1.23-3.74,3.65-7.49,7.29-11.23,10.94-.32.31-.59.66-.92,1.04,2.28,2.16,4.49,4.22,6.67,6.33,1.28,1.24,2.53,2.51,3.69,3.85.25.29.29,1.19.06,1.39-.36.31-1.04.38-1.57.33-.36-.03-.72-.38-1.01-.66-1.23-1.18-2.43-2.38-3.64-3.58-1.77-1.76-3.51-3.54-5.3-5.27-.44-.43-.9-.97-1.63-.15-1.47,1.63-3.03,3.18-4.59,4.73-4.33,4.3-8.69,8.56-13,12.89-.38.38-.72,1.21-.57,1.66,1.28,3.99,3.29,7.63,6.12,10.71,2.83,3.08,5.94,5.92,9.98,7.46.46.18.95.36,1.35.64.66.47,1.1.4,1.69-.19,2.06-2.04,4.19-4.02,6.3-6.03,1.73-1.65,1.77-1.69.14-3.39-2.64-2.75-5.29-5.5-8.06-8.12-.76-.72-.61-1.26-.3-1.93.38-.83,1.07-.65,1.7-.34.4.2.76.49,1.09.81,2.9,2.79,5.81,5.56,8.67,8.39.72.72,1.14.61,1.81-.07,2.8-2.84,5.64-5.63,8.51-8.4.41-.4,1.04-.71,1.61-.79,1.28-.17,1.7.44,1.14,1.63-.26.54-.72,1-1.16,1.43-6.46,6.28-12.91,12.56-19.4,18.81-.72.69-1.06,1.43-.99,2.42.19,2.93.11,5.9.56,8.79,1.07,6.84,3.68,13.04,8.49,18.18,2.25,2.4,5.04,4.03,7.89,5.58.23.12.78-.09,1.04-.32,1.38-1.19,2.74-2.42,4.08-3.66,1.62-1.49,3.19-3.03,4.82-4.51.59-.54,1.27-.81,1.95-.05.64.71.31,1.3-.19,1.86-.42.46-.87.89-1.31,1.33-2.25,2.25-4.51,4.5-6.76,6.75Zm64.71-86.42c0-.96-1.12-2.02-2.15-2.02-.84,0-1.95,1.09-1.98,1.93-.04,1.15.96,2.37,1.93,2.35,1.14-.01,2.2-1.1,2.2-2.27Zm-20.4-21.38c-.03-1.19-1.08-2.3-2.18-2.31-1.03,0-2,1.08-1.94,2.19.06,1.14.84,1.96,1.85,1.94,1.22-.02,2.3-.88,2.27-1.83Zm-2.34-19.54c-1.14,0-1.99.82-1.99,1.94,0,1.03,1.15,2.26,2.11,2.24,1.05-.02,1.99-1.11,1.99-2.32,0-.95-1.03-1.86-2.1-1.86Zm2.33,40.62c.03-.87-1.04-1.84-2.11-1.9-1.1-.06-2,.75-2.07,1.87-.08,1.2.8,2.14,2.05,2.18,1.1.04,2.09-.96,2.13-2.15Zm-7.05,14.63c0-1.27-.97-2.51-1.96-2.5-.98.01-2.21,1.15-2.19,2.03.02.97,1.25,2.19,2.19,2.16,1.03-.02,1.96-.82,1.96-1.69Zm1.54,60.4c1.33.01,2.31-.94,2.29-2.23-.01-.74-1.39-1.83-2.32-1.84-.84,0-1.84,1.16-1.85,2.16,0,1,.87,1.89,1.88,1.9Zm33.56-51.66c.03-1.08-.87-1.92-2.19-2.02-.8-.06-1.85,1.14-1.87,2.13-.02.93,1.01,1.96,2.01,2,1.19.05,2.01-.8,2.06-2.11Zm-21.63,27.39c-.01-.8-1.14-1.78-2.06-1.8-.91-.02-1.94,1.12-1.9,2.09.05,1.15,1.01,2.11,2.05,2.07,1.06-.05,1.93-1.13,1.91-2.36Zm-1.84-22.47c-1.03-.02-2.09.99-2.16,2.04-.04.72,1.25,1.93,2.12,1.97.99.05,1.93-.93,1.93-2.02,0-1.21-.73-1.97-1.89-1.99Z"/>
  <path class="cls-1" d="m420.55,182.37v-77.88c.17-.07.32-.19.46-.19,5.24.03,10.48-.08,15.71.17,5.37.26,9.45,4.71,9.54,10.09.06,3.4,0,6.8,0,10.2,0,15.05.02,30.1,0,45.15,0,3.18-.35,6.26-2.43,8.93-2.01,2.58-4.71,3.66-7.81,3.72-5.03.11-10.06,0-15.09,0-.07,0-.15-.07-.37-.18Zm8.22-70.11c0,.81,0,1.27,0,1.72,0,15.62.01,31.23.02,46.85,0,4.1.05,8.2-.03,12.3-.02,1.19.41,1.53,1.51,1.47,1.08-.06,2.16.01,3.24-.02,3.06-.08,4.5-1.48,4.51-4.55.05-16.57.07-33.14.1-49.71,0-1.49-.02-2.98-.1-4.47-.06-1.16-1.43-3-2.5-3.12-2.21-.25-4.44-.32-6.76-.48Z"/>
  <path class="cls-1" d="m587.07,143.63c0,9.7.03,19.39-.01,29.09-.02,4.35-2,7.6-5.86,9.66-.6.32-1.32.47-2,.61-3.89.8-7.78.79-11.58-.41-3.08-.98-5.05-3.15-6.03-6.23-.62-1.96-.67-3.95-.67-6,.01-18.23-.03-36.47-.08-54.7,0-2.68.21-5.28,1.74-7.62,1.42-2.18,3.46-3.47,5.92-4.02,3.95-.89,7.95-.83,11.85.25,3.4.94,5.75,3.58,6.43,7.07.26,1.33.29,2.72.29,4.08.02,9.41.01,18.81.01,28.22Zm-8.31.05h-.02c0-7.83.01-15.67,0-23.5,0-1.9-.04-3.82-.22-5.71-.18-1.94-1.27-3.09-3.01-3.51-3.71-.89-6.39,1.16-6.4,4.97-.02,17.99-.01,35.98,0,53.97,0,.9.15,1.82.35,2.7.56,2.43,2.25,3.61,4.84,3.49,2.42-.11,4.04-1.55,4.36-3.94.11-.78.08-1.57.09-2.36,0-8.71,0-17.41,0-26.12Z"/>
  <path class="cls-1" d="m362.29,104.4c2.62,0,5.06-.03,7.49.05.21,0,.57.7.58,1.08.04,5.76.02,11.52.02,17.28,0,15.71.02,31.42-.02,47.12,0,2.06-.19,4.14-.55,6.17-.17.95-.86,1.87-1.48,2.68-2.12,2.76-4.95,4.22-8.46,4.23-2.24,0-4.5.02-6.73-.21-3.54-.37-6.25-2.19-7.85-5.38-.46-.92-.6-2.08-.61-3.14-.1-10.44-.17-20.88-.2-31.33-.03-10.9-.02-21.8,0-32.7,0-1.2.06-2.41.21-3.59.19-1.48.9-2.13,2.37-2.23,1.45-.09,2.91-.08,4.36-.13.98-.03,1.35.36,1.34,1.4-.05,5.72-.02,11.44-.02,17.16,0,15.21,0,30.42,0,45.63,0,1.24.05,2.49.17,3.72.22,2.41,1.31,3.36,4.25,3.83,1.69.27,3.86-.84,4.44-2.52.4-1.15.61-2.42.62-3.63.05-21.01.05-42.03.07-63.04,0-.78,0-1.56,0-2.45Z"/>
  <path class="cls-1" d="m215.24,124.51c0-.81,0-1.2,0-1.6.02-2.78.14-5.55.04-8.33-.07-2.08-2-3.75-4.06-3.77-2.01-.01-3.98,1.73-4.04,3.8-.09,3.1-.26,6.23.05,9.3.19,1.96.94,3.96,1.84,5.73,3.2,6.32,6.6,12.54,9.88,18.81,1.77,3.38,3.54,6.76,4.3,10.55.23,1.13.38,2.29.4,3.44.05,3.32-.19,6.65.07,9.95.42,5.38-3.6,10.4-9.58,10.94-3.2.29-6.36.22-9.34-.88-1.44-.53-2.74-1.59-3.86-2.9-2.17-2.54-2.15-5.48-2.18-8.43-.03-2.6.2-5.2.39-7.8.09-1.28.88-2.06,2.08-2.53,1.88-.73,3.72-1.56,5.76-2.42,0,.48,0,.78,0,1.09.05,4.23,0,8.45.2,12.67.1,2.31,1.88,3.95,3.75,3.94,2.19-.02,4.13-1.56,4.3-3.87.53-6.88.19-13.57-3.39-19.86-4.03-7.09-7.68-14.39-11.39-21.66-1.5-2.94-1.66-6.22-1.71-9.46-.04-2.57.01-5.14.14-7.71.19-4.04,2.07-7.19,5.7-8.96,1.54-.75,3.45-1.01,5.19-1.03,2.43-.04,4.99-.03,7.27.68,1.68.53,3.08,2.13,4.46,3.4,1.79,1.64,1.92,3.96,2.11,6.18.11,1.27.04,2.57.02,3.85-.02,1.22-.45,2.33-1.51,2.97-2.16,1.3-4.38,2.48-6.89,3.89Z"/>
  <path class="cls-1" d="m450.24,60.61c0,6.45,0,12.9,0,19.35,0,2.24-.02,4.48.01,6.71.01.94-.36,1.37-1.33,1.36-1.77-.03-3.55,0-5.45,0,0-2.08,0-4.02,0-5.96,0-17.86-.01-35.73,0-53.59,0-1.2.14-2.4.25-3.59.09-.88.56-1.5,1.49-1.57,1.49-.11,2.98-.18,4.47-.16.19,0,.54.63.54.96.04,6.96.05,13.92.06,20.89,0,.04.02.08.12.42.66-1.97,1.21-3.71,1.81-5.43,1.85-5.27,3.7-10.53,5.6-15.78.14-.38.62-.9.97-.91,2.1-.08,4.21-.04,6.6-.04-.33,1.03-.59,1.96-.92,2.86-2.84,7.86-5.66,15.73-8.57,23.56-.78,2.1-.71,3.98,0,6.12,3.36,10.17,6.57,20.39,9.82,30.6.51,1.61.45,1.64-1.27,1.66-1.5.01-2.99,0-4.49.03-.73.01-1.08-.27-1.31-1-2.13-6.87-4.33-13.72-6.47-20.59-.61-1.95-1.09-3.94-1.63-5.91-.1.02-.2.03-.3.05Z"/>
  <path class="cls-1" d="m302.95,104.5c-1.08,2.26-1.87,4.48-3.16,6.36-.57.83-2.12,1.25-3.28,1.37-2.01.22-4.07-.03-6.1.09-2.08.12-2.59.73-2.63,2.81-.05,2.9-.06,5.8-.06,8.7,0,18.81.01,37.62.02,56.44,0,.21,0,.41,0,.62-.07,1.68-.09,1.71-1.81,1.67-1.49-.04-2.99-.09-4.48-.16-.99-.05-1.5-.67-1.62-1.59-.12-.98-.22-1.98-.23-2.97-.01-21.3-.01-42.6-.01-63.9,0-1.69,0-1.68-1.73-1.69-2.79,0-5.57-.04-8.36-.01-.84,0-1.22-.2-1.14-1.12.12-1.32.09-2.65.2-3.97.15-1.92.78-2.56,2.7-2.72,1.12-.1,2.24-.12,3.36-.12,8.86,0,17.71,0,26.57,0,.52,0,1.04.11,1.76.19Z"/>
  <path class="cls-1" d="m328.25,45.29c-.33,2.41-.67,4.82-.98,7.23-.9,6.86-1.78,13.71-2.69,20.57-.59,4.47-1.24,8.94-1.8,13.42-.15,1.17-.57,1.66-1.82,1.57-1.61-.11-3.24-.03-4.86,0-.91.02-1.19-.16-.99-1.22.63-3.29,1.06-6.61,1.58-9.92.83-5.31,1.69-10.62,2.5-15.94.61-4.01,1.14-8.03,1.74-12.04.86-5.77,1.76-11.53,2.65-17.3.38-2.49.81-4.98,1.16-7.48.12-.82.43-1.17,1.29-1.09.78.07,1.58.01,2.37.07,2.46.17,3.48,1.03,3.89,3.53.77,4.66,1.45,9.33,2.17,13.99.96,6.3,1.93,12.6,2.89,18.9,1.35,8.88,2.71,17.76,4.04,26.64.28,1.89.22,1.91-1.63,1.88-1.41-.02-2.83-.06-4.24-.01-.96.03-1.42-.29-1.55-1.29-.71-5.55-1.47-11.08-2.21-16.63-.98-7.3-1.97-14.61-2.96-21.91-.13-.98-.26-1.97-.38-2.95-.05,0-.1,0-.15,0Z"/>
  <path class="cls-1" d="m392.85,46.79c.07-1.16.16-1.97.16-2.78.01-3.9.03-7.79,0-11.69-.02-2.02-1.37-3.57-3.13-3.71-2.15-.18-3.63,1.12-3.72,3.36-.07,1.57-.05,3.15-.05,4.72,0,12.97,0,25.94.03,38.92,0,1.28.05,2.57.2,3.84.23,1.91,1.7,3.2,3.4,3.1,1.85-.11,3.09-1.34,3.15-3.32.1-2.94.13-5.88.16-8.82.03-2.06.77-3.54,2.91-4.18,1.28-.38,2.48-1.01,3.87-1.59,0,2.28.02,4.26,0,6.24-.04,3.44-.03,6.87-.2,10.3-.21,4.42-3.63,6.85-7.5,7.3-2.11.25-4.34.08-6.45-.27-3.7-.62-6.33-4.07-6.33-7.99-.02-8.37,0-16.74,0-25.12,0-7.83,0-15.67,0-23.5,0-1.85.34-3.62,1.36-5.21,1.29-2.01,2.99-3.31,5.48-3.66,3.14-.44,6.18-.44,9.2.69,2.2.82,3.13,2.64,3.88,4.58.38.98.52,2.1.54,3.16.07,3.02.02,6.05,0,9.08,0,2.12-.74,3.77-2.88,4.61-1.29.51-2.52,1.19-4.09,1.94Z"/>
  <path class="cls-1" d="m205.65,67.93c0,2.69,0,5.13,0,7.56,0,1.2-.01,2.41.04,3.6.09,1.89,1.46,3.38,3.11,3.46,1.74.09,3.34-1.11,3.51-3.03.53-5.88.2-11.59-2.86-16.96-3.22-5.64-6.07-11.49-9.12-17.23-1.13-2.12-1.52-4.38-1.5-6.71.03-3.18-.05-6.39.34-9.53.43-3.5,2.83-5.59,6.32-6.27,2.4-.47,4.76-.51,7.18-.08,3.98.71,6.37,3.86,6.73,7.84.06.66.12,1.32.14,1.98.06,2.16-.69,3.88-2.73,4.89-1.39.69-2.78,1.4-4.35,2.2,0-.94,0-1.71,0-2.48-.01-1.74,0-3.48-.06-5.22-.07-2.1-1.22-3.29-3.19-3.39-1.8-.09-3.33,1.23-3.49,3.17-.47,5.64.27,10.96,3.26,16,3.12,5.26,5.76,10.82,8.59,16.25,1.14,2.2,1.84,4.54,1.88,7.02.06,3.31.16,6.63-.08,9.92-.24,3.28-2.2,5.89-5.16,6.92-2.36.83-5.16.6-7.75.55-3.05-.06-5.31-1.7-6.76-4.33-.43-.77-.7-1.72-.73-2.6-.1-2.89-.11-5.79-.05-8.68.03-1.39.79-2.37,2.15-2.9,1.48-.58,2.93-1.26,4.58-1.97Z"/>
  <path class="cls-1" d="m579.09,87.92c-1.66,0-3.11.11-4.55-.03-1.59-.15-2.25-.99-2.25-2.58-.02-5.35-.19-10.7.01-16.03.21-5.56-.49-10.96-1.73-16.35-1.43-6.25-2.67-12.54-4-18.81-.75-3.55-1.51-7.1-2.33-10.92,2.05-.04,4.04-.52,5.8.37.76.39,1.36,1.59,1.55,2.53.84,3.96,1.55,7.96,2.23,11.95.58,3.42,1.07,6.86,1.61,10.28,0,.05.12.09.27.21.45-2.38.9-4.71,1.33-7.04,1.01-5.49,2.03-10.98,2.99-16.48.24-1.38,1.05-1.89,2.31-1.91,1.49-.02,2.98,0,4.69,0-.19,1.24-.33,2.6-.62,3.94-1.71,8.01-3.47,16-5.17,24.02-.73,3.44-1.36,6.9-2,10.36-.14.77-.15,1.57-.15,2.35-.01,7.54,0,15.08,0,22.63v1.52Z"/>
  <path class="cls-1" d="m499.64,104.43c1.87,0,3.53-.09,5.18.02,1.97.14,2.89,1.18,2.89,3.17.02,13.1.03,26.19.04,39.29,0,11.15,0,22.3,0,33.45,0,2.18,0,2.19-2.22,2.2-1.12,0-2.25.03-3.37-.03-1.74-.08-2.48-.84-2.5-2.58-.03-2.94-.03-5.89-.03-8.83,0-21.84.01-43.69.02-65.53,0-.4,0-.81,0-1.17Z"/>
  <path class="cls-1" d="m528.61,23.13c-.56,2-1.04,4.13-2.61,5.48-.96.82-2.56,1.07-3.92,1.22-1.85.2-3.74.05-5.61.05-1.81,0-2.29.43-2.32,2.27-.05,3.69-.03,7.38-.04,11.06,0,2.68,0,5.37,0,8.23h12.02c-1.05,2.02-1.74,3.94-2.95,5.44-.68.85-2.19,1.16-3.39,1.42-1.07.23-2.24,0-3.36.06-2.04.12-2.28.38-2.29,2.39-.02,5.14,0,10.28-.03,15.42-.02,2.94-.07,5.88-.16,8.82-.06,2.14-.94,2.97-3.11,3.02-.87.02-1.75-.01-2.62.04-.77.05-1.02-.27-1.01-1.01.02-3.27,0-6.55,0-9.82,0-16,0-32,0-47.99,0-1.37.1-2.73.18-4.1.07-1.02.53-1.72,1.65-1.83.41-.04.82-.17,1.23-.17,6.06-.01,12.11,0,18.33,0Z"/>
  <path class="cls-1" d="m284.92,23.1c-.32,3.89-3.23,6.68-7.02,6.71-1.16,0-2.33-.04-3.49,0-1.31.05-1.75.5-1.83,1.83-.04.62-.04,1.24-.04,1.86,0,17.41,0,34.82,0,52.23,0,.37-.02.75-.01,1.12.01.85-.43,1.2-1.25,1.17-1.33-.05-2.66-.16-3.98-.13-1,.02-1.31-.53-1.43-1.34-.07-.45-.08-.91-.08-1.36-.02-17.95-.04-35.9-.02-53.85,0-1.18-.26-1.6-1.49-1.56-2.28.08-4.57-.01-6.86,0-.58,0-1.05-.06-1-.75.1-1.48.15-2.98.44-4.43.1-.49.78-1.01,1.31-1.23.63-.25,1.38-.25,2.08-.26,7.44-.02,14.89-.02,22.33-.02.78,0,1.56,0,2.34,0Z"/>
  <path d="m76.47,172.87c2.25-2.25,4.51-4.5,6.76-6.75.44-.44.9-.86,1.31-1.33.5-.56.84-1.15.19-1.86-.69-.76-1.36-.49-1.95.05-1.63,1.48-3.2,3.01-4.82,4.51-1.34,1.24-2.69,2.47-4.08,3.66-.26.22-.81.44-1.04.32-2.85-1.54-5.65-3.18-7.89-5.58-4.81-5.14-7.43-11.34-8.49-18.18-.45-2.89-.37-5.86-.56-8.79-.06-.98.28-1.72.99-2.42,6.48-6.25,12.94-12.53,19.4-18.81.44-.43.9-.89,1.16-1.43.56-1.18.13-1.8-1.14-1.63-.57.08-1.19.39-1.61.79-2.87,2.77-5.71,5.56-8.51,8.4-.67.68-1.09.79-1.81.07-2.86-2.83-5.77-5.61-8.67-8.39-.32-.31-.69-.6-1.09-.81-.62-.32-1.32-.5-1.7.34-.31.67-.46,1.21.3,1.93,2.77,2.62,5.41,5.37,8.06,8.12,1.63,1.7,1.6,1.73-.14,3.39-2.1,2.01-4.23,3.98-6.3,6.03-.59.58-1.03.66-1.69.19-.4-.29-.88-.46-1.35-.64-4.04-1.54-7.15-4.37-9.98-7.46-2.82-3.08-4.83-6.72-6.12-10.71-.15-.46.19-1.28.57-1.66,4.3-4.33,8.66-8.59,13-12.89,1.56-1.55,3.13-3.1,4.59-4.73.73-.82,1.19-.28,1.63.15,1.79,1.73,3.53,3.51,5.3,5.27,1.21,1.2,2.41,2.4,3.64,3.58.29.28.66.63,1.01.66.53.04,1.21-.02,1.57-.33.23-.2.19-1.09-.06-1.39-1.16-1.34-2.42-2.61-3.69-3.85-2.17-2.11-4.39-4.17-6.67-6.33.34-.38.61-.73.92-1.04,3.74-3.65,7.49-7.29,11.23-10.94.38-.37.76-.78,1.04-1.23.37-.62.61-1.26-.15-1.87-.75-.61-1.36-.46-1.96.16-1.54,1.57-3.03,3.19-4.61,4.72-3.04,2.95-6.15,5.82-9.18,8.78-6.33,6.17-12.62,12.38-18.94,18.56-.08.08-.2.11-.54.28-.32-2.42-.73-4.73-.91-7.05-.61-7.9.45-15.53,3.93-22.74,3.29-6.82,8.48-11.66,15.34-14.8.78-.36,1.25-.16,1.84.41,2.77,2.69,5.62,5.3,8.4,7.97.78.75,1.47.83,2.24.07.9-.88.21-1.47-.39-2.07-2.69-2.71-5.4-5.4-8.05-8.16-.44-.46-.86-1.2-.85-1.8.06-4.37.59-8.66,2.2-12.78,3.62-9.24,10.27-15.26,19.62-18.44,1.01-.34,2.03-.68,3.2-1.07.04.54.1.97.1,1.4.01,6.09.01,12.19.04,18.28,0,.93-.28,1.62-.9,2.33-2.22,2.52-4.4,5.09-6.49,7.71-.39.49-.53,1.39-.37,1.99.09.33,1.03.6,1.59.6.4,0,.89-.43,1.18-.8,1.85-2.34,3.71-4.68,5.45-7.09.56-.77.83-.87,1.43-.12,1.69,2.15,3.42,4.27,5.14,6.4.36.45.67,1.08,1.15,1.28.62.26,1.38.17,2.08.23-.01-.61.21-1.37-.08-1.8-1.25-1.86-2.62-3.63-3.99-5.4-.69-.88-1.42-1.75-2.25-2.49-.99-.88-1.32-1.87-1.3-3.17.07-6.22.08-12.44.06-18.65,0-.93.18-1.44,1.24-1.53,1.24-.1,2.46-.37,3.69-.59,1.38-.24,2.6.2,3.83.77,1.54.71,3.1,1.4,4.69,1.96.87.31.83.89.83,1.56,0,8.71.01,17.41.03,26.12,0,1.57.15,3.16.05,4.72-.04.65-.4,1.42-.86,1.89-2.78,2.85-5.62,5.65-8.48,8.43-1.61,1.56-3.34,3-4.94,4.56-1.12,1.1-2.13,2.32-3.16,3.51-.34.39-1.07.83-.31,1.41.63.48,1.37,1.11,2.21.33,2.69-2.52,5.38-5.05,8.04-7.6,3-2.87,5.96-5.77,8.92-8.64,4.36,4.43,8.64,8.8,12.94,13.17.35.35.69.72,1.08,1.03.68.54.79,1.11.47,1.95-.75,1.97.43,4.46,2.55,5.64,1.78.99,4.48.44,5.78-1.19,1.6-2.01,1.65-4.07.16-6.13-1.25-1.72-3.66-2.37-5.82-1.61-.27.09-.76.07-.93-.11-4.26-4.48-8.45-9.02-12.73-13.48-1.3-1.35-1.81-2.82-1.8-4.68.06-9.2.09-18.41-.06-27.61-.03-2.01.49-2.87,2.34-3.89,3.94-2.18,7.81-1.98,11.93-1.12,1.37.29,1.8.83,1.75,2.2-.1,2.81-.04,5.64.01,8.46.02.84-.2,1.31-.99,1.74-1.76.95-2.55,2.58-2.49,4.55.06,1.99,1.01,3.47,2.83,4.34,1.98.95,4.91.03,6.02-1.88,1.48-2.55,1.09-5.22-1.15-6.57-1.22-.73-1.67-1.5-1.57-2.98.18-2.8.05-5.62.05-8.68,5.39,1.36,10.09,3.96,13.96,7.71,6.64,6.43,9.36,14.55,9.37,23.86-.53,0-.98,0-1.42,0-5.7,0-11.4-.03-17.1.02-.99,0-1.51-.32-1.91-1.18-.88-1.87-2.64-2.6-5.27-2.31-1.41.16-3.05,1.66-3.46,3.2-.49,1.82-.43,3.62.97,4.98,1.38,1.34,3.22,1.88,5.06,1.18,1.01-.39,1.92-1.26,2.64-2.11.59-.7,1.11-1.1,2.05-1.1,6.11.02,12.23-.02,18.34.03.79,0,1.63.26,2.36.59,1.88.87,3.86,1.65,5.54,2.83,2.84,1.99,5.7,4.07,7.6,7.05,1.57,2.47,2.93,5.08,4.38,7.64.07.13.06.3.1.6-.9,0-1.72,0-2.54,0-5.28,0-10.56,0-15.85.01-.74,0-1.18-.12-1.42-.98-.46-1.67-3.23-2.84-5.36-2.45-2.95.53-3.98,2.94-3.75,5.31.19,1.94,1.49,4.2,4.35,4.33,2.09.09,3.78-.54,4.78-2.47.42-.82.98-1.03,1.9-1.01,5.99.08,11.98.09,17.97.08.79,0,1.18.17,1.37,1,1.19,5.21,1.61,10.46,1.32,15.79-.19,3.47-.17,3.49-3.6,3.46-3.08-.03-6.15-.15-9.23-.16-1.02,0-1.71-.27-2.17-1.25-1.04-2.23-3.62-2.36-5.42-1.95-2.32.52-3.51,2.04-3.6,4.29-.1,2.65.9,4.12,3.39,4.94,2.14.71,4.45-.09,5.69-2.17.56-.93,1.18-1.15,2.19-1.14,3.86.06,7.72.02,11.85.02-.44,1.59-.79,2.8-1.12,4.02-1.11,4.01-2.94,7.72-5.55,10.89-2.63,3.2-5.83,5.9-9.63,7.77-.82.4-1.67.76-2.43,1.26-.92.6-1.58.41-2.28-.34-2.54-2.68-5.12-5.32-7.66-8-1.8-1.89-3.42-3.97-5.38-5.69-1.31-1.15-1.4-2.06-.88-3.61.76-2.22-1.38-4.86-3.98-5.29-3.42-.55-6.24,2.27-5.69,5.68.36,2.21,2.88,4.36,5.04,3.88,1.59-.35,2.36.25,3.35,1.25,3.78,3.85,7.71,7.56,11.47,11.43,4.01,4.11,3.53,3.04,3.34,8.2-.26,7.05-1.85,13.8-5.93,19.72-4.44,6.43-10.55,10.52-18.19,12.29-.76.18-1.51.37-2.46.61,0-1,0-1.85,0-2.7,0-2.28.06-4.56-.04-6.84-.04-1.07.33-1.67,1.22-2.19,2.5-1.46,3.02-3.92,1.69-6.51-1.35-2.62-4.45-2.62-6.27-1.75-2.32,1.1-3.4,3.99-2.33,6.21.49,1.03.99,2.1,2.29,2.48.29.09.62.68.62,1.04.04,3.44,0,6.88.02,10.32,0,.76-.42.91-1.05,1.1-3.07.94-5.57-.21-7.98-1.94-.83-.59-1.77-1.09-2.74-1.41-.91-.3-1.2-.73-1.19-1.68.04-9.87.03-19.73.03-29.6,0-.95,0-1.89,0-2.91.38-.04.7-.09,1.02-.09,5.7,0,11.4,0,17.1-.02.83,0,1.36.16,1.73,1.03.88,2.04,3.02,2.89,5.33,2.25,2.25-.63,3.95-2.81,3.73-4.84-.51-4.73-4.76-5.57-7.67-3.84-.56.33-1.04.95-1.35,1.55-.37.71-.78,1.1-1.61,1.1-5.78-.01-11.56-.02-17.35.01-1.08,0-.93-.65-.93-1.31,0-8,.02-16,.02-24,0-2.32.04-4.64-.03-6.96-.03-1.12.2-1.72,1.49-1.61,1.03.09,2.08.04,3.12-.03.79-.05,1.19.3,1.52.97.97,1.94,2.62,2.82,4.76,2.62,1.98-.19,3.77-1.64,4.29-3.48.52-1.86-.27-4.12-1.86-5.32-1.83-1.38-6.58-.76-7.24,1.75-.08.32-.7.7-1.09.72-1.58.09-3.17.17-4.73,0-.79-.08-1.68-.53-2.27-1.08-2.17-2-4.23-4.1-6.34-6.17-.12-.12-.22-.25-.34-.36-.75-.69-2.03-.9-2.48-.34-.7.85-.15,1.61.42,2.2,2.1,2.18,4.26,4.31,6.41,6.45.23.23.51.42.83.67-3.02,2.93-5.94,5.74-8.84,8.57-1.25,1.22-2.47,2.46-3.67,3.72-.51.54-.86,1.15-.11,1.82.72.65,1.28.61,2.02-.09,3.05-2.88,6.16-5.69,9.23-8.53.47-.43.88-.92,1.51-1.59.04.74.08,1.17.08,1.61.06,6.09.15,12.19.15,18.28,0,.75-.33,1.68-.85,2.21-3.15,3.25-6.41,6.38-9.6,9.59-5.15,5.19-10.26,10.4-15.4,15.6-.48.49-.66.95-.15,1.5.53.57,1.12,1.13,1.92.48.93-.76,1.85-1.54,2.68-2.41,1.67-1.72,3.27-3.51,4.97-5.35,1.39,1.38,2.43,2.44,3.49,3.48,1.51,1.47,3.02,2.95,4.56,4.39.73.68,1.44.44,2.07-.21.62-.65.32-1.15-.22-1.69-2.36-2.33-4.69-4.7-7.07-7.01-.6-.58-.58-.9.04-1.48,4.58-4.33,9.12-8.7,13.68-13.06-.1-.12-.21-.24-.31-.36.06.09.19.19.19.28.03,13.6.04,27.19.08,40.79,0,.95-.24,1.47-1.21,1.84-1.11.42-2.14,1.09-3.13,1.77-2.14,1.45-4.28,2.31-7,1.49-3.4-1.03-6.9-1.7-10.35-2.53-.04-.17-.09-.34-.13-.52Z"/>
  <path d="m141.18,86.45c0,1.17-1.06,2.26-2.2,2.27-.97.01-1.96-1.21-1.93-2.35.03-.84,1.14-1.93,1.98-1.93,1.04,0,2.16,1.05,2.15,2.02Z"/>
  <path d="m120.78,65.07c.02.95-1.05,1.81-2.27,1.83-1.01.01-1.79-.81-1.85-1.94-.06-1.11.91-2.19,1.94-2.19,1.1,0,2.15,1.12,2.18,2.31Z"/>
  <path d="m118.44,45.53c1.07,0,2.1.91,2.1,1.86,0,1.2-.94,2.3-1.99,2.32-.96.02-2.12-1.21-2.11-2.24,0-1.12.86-1.94,1.99-1.94Z"/>
  <path d="m120.77,86.15c-.04,1.19-1.04,2.19-2.13,2.15-1.24-.04-2.12-.97-2.05-2.18.07-1.12.97-1.94,2.07-1.87,1.07.06,2.15,1.03,2.11,1.9Z"/>
  <path d="m113.72,100.78c0,.87-.93,1.67-1.96,1.69-.94.02-2.17-1.2-2.19-2.16-.01-.88,1.21-2.01,2.19-2.03.99-.01,1.97,1.23,1.96,2.5Z"/>
  <path d="m115.26,161.18c-1.01,0-1.89-.9-1.88-1.9.01-1,1.01-2.17,1.85-2.16.93,0,2.31,1.1,2.32,1.84.02,1.28-.96,2.24-2.29,2.23Z"/>
  <path d="m148.82,109.51c-.04,1.32-.87,2.17-2.06,2.11-1-.04-2.03-1.07-2.01-2,.02-1,1.07-2.19,1.87-2.13,1.32.1,2.23.94,2.19,2.02Z"/>
  <path d="m127.19,136.91c.02,1.23-.85,2.31-1.91,2.36-1.04.05-2-.92-2.05-2.07-.04-.97.99-2.11,1.9-2.09.93.02,2.05,1,2.06,1.8Z"/>
  <path d="m125.34,114.44c1.16.02,1.88.79,1.89,1.99,0,1.09-.93,2.07-1.93,2.02-.87-.04-2.16-1.25-2.12-1.97.07-1.05,1.13-2.06,2.16-2.04Z"/>
  <path d="m428.77,112.26c2.32.15,4.55.23,6.76.48,1.07.12,2.44,1.96,2.5,3.12.07,1.49.1,2.98.1,4.47-.02,16.57-.05,33.14-.1,49.71,0,3.07-1.45,4.47-4.51,4.55-1.08.03-2.16-.04-3.24.02-1.1.06-1.53-.29-1.51-1.47.07-4.1.03-8.2.03-12.3,0-15.62-.01-31.23-.02-46.85,0-.45,0-.9,0-1.72Z"/>
  <path d="m578.76,143.68c0,8.71,0,17.41,0,26.12,0,.79.02,1.58-.09,2.36-.33,2.39-1.94,3.83-4.36,3.94-2.59.12-4.28-1.07-4.84-3.49-.2-.88-.35-1.8-.35-2.7-.02-17.99-.02-35.98,0-53.97,0-3.81,2.69-5.86,6.4-4.97,1.74.42,2.83,1.58,3.01,3.51.18,1.89.21,3.81.22,5.71.02,7.83,0,15.67,0,23.5h.02Z"/>
</svg>