<?xml version="1.0" encoding="UTF-8"?>
<svg id="Camada_1" data-name="Camada 1" xmlns="http://www.w3.org/2000/svg" viewBox="0 0 923.64 261.81">
  <defs>
    <style>
      .cls-1 {
        fill: #1c8a79;
      }

      .cls-2 {
        fill: #161d28;
      }
    </style>
  </defs>
  <g>
    <path class="cls-2" d="m76.07,37c13.49,0,26.99-.07,40.48.04,4.94.04,9.13,1.59,11.5,6.58,2.79,5.87-.93,13.62-6.94,15.29-2.78.77-5.78,1.04-8.69,1.05-24.49.08-48.98.04-73.47.05-7.25,0-11.98,3.66-14.58,11.23-1.52,4.42,1.53,13.27,5.8,16.3,3.21,2.27,6.55,3.69,10.83,3.59,13.99-.32,27.99.02,41.98-.17,10.46-.14,20.01,2.86,28.01,9.2,7.11,5.63,11.27,13.65,13.1,22.66,2.72,13.42-.87,24.92-10.18,34.98-8.14,8.8-18.41,12.14-29.83,12.12-21.58-.04-43.16-.59-64.74-.91-3.35-.05-6.71.19-10.04-.05-5.37-.39-7.97-3.07-9.17-8.96-.74-3.63,1.61-9.37,4.99-10.92,2.42-1.11,5.21-1.98,7.84-2,24.15-.15,48.31-.32,72.46.03,8.68.13,17.11-8.34,16.95-16.34-.17-8.48-8.44-17.21-17.12-16.92-14.98.5-29.99.35-44.97.08-14.8-.26-26.14-6.98-33.55-19.83C-1.71,79.44.77,58.61,13.57,47.14c7.03-6.3,15.19-10.28,25.02-10.18,12.49.14,24.99.03,37.48.03Z"/>
    <path class="cls-2" d="m558.11,85.5c0-25,0-50,0-75,0-7.04,3.48-10.48,10.57-10.5,7.42-.02,11.41,3.67,11.42,10.75.03,28.5.1,57-.09,85.5-.03,3.94,1.08,4.65,4.87,4.93,6.87.5,11.54-1.49,16.01-7.1,5.9-7.4,13.21-13.69,20.03-20.34,5.92-5.78,11.47-11.88,17.9-17.19,6.37-5.26,11.83-11.64,17.75-17.46,4.66-4.59,12.97-4.38,17.27.07,3.34,3.46,3.25,11.84-1.97,16.79-15.19,14.4-29.99,29.2-45.03,43.75-1.78,1.72-1.27,2.91.07,4.28,5.4,5.53,10.84,11.01,16.22,16.56,10.04,10.34,19.85,20.91,30.14,31,6.9,6.77,4.36,18.03-5.69,20.31-4.82,1.1-8.43-1.41-11.33-4.36-7.95-8.06-15.45-16.56-23.22-24.8-4.34-4.6-8.83-9.05-13.28-13.55-2.84-2.88-5.84-5.62-8.54-8.62-1.73-1.93-3.11-1.77-4.26.23-1.6,2.79-4.19,3.19-6.94,3.23-5,.07-10-.02-15,.03-5.71.06-4.86-.78-4.89,5.12-.05,10.83.05,21.67-.04,32.5-.04,4.61-2.21,8.01-6.68,9.55-4.36,1.5-8.62,1.75-12.36-1.71-2.36-2.18-2.98-4.83-2.97-7.97.08-25.33.05-50.66.04-76Z"/>
    <path class="cls-2" d="m851.11,185.47c0-14.16.1-28.33-.09-42.49-.04-2.64-.73-5.53-1.97-7.84-9.11-16.89-18.34-33.72-27.74-50.45-5.92-10.54-12.22-20.86-18.27-31.32-3.66-6.32-2.07-11.88,3.18-15.91,4.24-3.26,12.29-2,15.54,2.83,4.21,6.25,7.84,12.9,11.62,19.43,3.33,5.77,6.56,11.59,9.74,17.44,3.08,5.67,6.01,11.42,9.03,17.12,2.75,5.18,5.48,10.38,8.36,15.48.54.95,1.44,2.32,2.7-.02,4.75-8.8,9.83-17.42,14.7-26.15,7.77-13.92,15.41-27.93,23.27-41.8,2.84-5.01,7.55-6.55,13.13-5.78,3.78.52,8.18,4.5,9.12,8.82.99,4.58-1.64,8.35-3.73,11.96-9.63,16.59-19.6,32.99-29.26,49.56-5.6,9.61-10.91,19.39-16.21,29.17-.79,1.47-1.06,3.38-1.07,5.08-.06,30.82-.03,61.65-.05,92.47,0,6.15-2.34,9.63-7.76,10.77-4.33.91-10.03-.05-11.97-4.54-1.44-3.32-2.1-7.2-2.16-10.84-.24-14.33-.1-28.66-.1-42.99Z"/>
    <path class="cls-2" d="m480.87,174.17c-19.45-.61-36.29-7.34-50.28-21.13-10.54-10.39-17.3-22.96-19.26-37.37-2.54-18.65,1.06-36.2,12.39-52,6.54-9.12,14.78-16.12,24.24-21.39,6.46-3.59,14.04-5.55,21.35-7.16,14.63-3.22,28.96-.9,42.41,5.28,9.3,4.27,17.56,10.51,23.86,18.7,5.71,7.42,1.45,18.01-8.3,19.66-3.83.65-7.5-1.81-9.98-5.17-7.91-10.69-18.65-15.99-31.8-16.57-6.4-.28-12.83-.3-18.93,2.01-6.68,2.54-12.94,5.8-18.07,11-5.93,6.02-10.63,12.64-13,20.94-2.89,10.16-2.9,20.14,1.05,29.92,6.31,15.64,17.86,25.77,34.11,29.78,12.97,3.2,25.56.61,37-6.09,3.64-2.14,6.69-5.73,9.23-9.22,5.26-7.23,12.29-6.25,17.18-2.35,5.15,4.11,5.1,11.31.88,16.78-6.46,8.36-15.25,13.43-24.27,18.13-9.26,4.82-19.41,6.21-29.82,6.25Z"/>
    <path class="cls-2" d="m742.05,37c11.16,0,22.32,0,33.47,0,7.72,0,12.16,4.33,12.7,11.14.53,6.7-5.58,11.85-12.51,11.85-17.49,0-34.98.16-52.46-.12-3.65-.06-3.73,1.53-3.66,4.09.2,8.18.49,16.35.45,24.53-.01,2.83.78,3.6,3.6,3.57,14.49-.14,28.98-.08,43.47-.06,6.9.01,10.12,2.24,12.05,8.16,2.24,6.86-2.56,13.8-9.68,13.82-14.49.05-28.98.01-43.47.02-6.57,0-6.66,0-6.86,6.84-.15,4.99-.03,9.99-.03,14.99,0,8.49,0,16.99,0,25.48,0,4.65-1.74,8.07-6.36,9.82-4.46,1.69-8.81,1.44-12.33-1.56-1.74-1.49-3.15-4.41-3.18-6.71-.52-38.05-.83-76.11-1.11-114.16-.05-7.35,4.45-11.66,11.94-11.68,11.32-.04,22.65,0,33.97,0Z"/>
    <path class="cls-2" d="m187.11,112.03c0-16.32-.08-32.64.07-48.95.03-3.15-.63-4.33-4.03-4.15-9.9.54-19.82.88-29.73,1.02-6.51.09-11.52-3.29-12.24-8.46-1.29-9.36,1.17-14.13,11.55-14.36,20.3-.44,40.62-.13,60.94-.13,12.49,0,24.98-.02,37.46,0,5.73.01,10.71,4,10.97,8.7.49,8.85-1.77,12.83-9.27,13.14-13.46.56-26.95.15-40.43.29-.77,0-1.88,1.18-2.21,2.05-.39,1.02-.09,2.3-.09,3.46,0,31.8-.15,63.61.13,95.41.05,5.84-3.87,10.94-8.5,11.91-6.29,1.32-12.4-1.83-14.44-7.53-.43-1.19-.18-2.64-.19-3.96,0-16.15,0-32.3,0-48.45Z"/>
    <path class="cls-1" d="m325.92,107.03c3.5,0,7.05.37,10.48-.09,4.78-.65,7.49,1.53,9.25,5.52,1.67,3.79,3.38,7.57,4.86,11.44,1.7,4.44,1.16,5.15-3.54,5.23-15.3.27-30.6.7-45.91.67-3.97,0-6.05,1.38-7.72,4.71-4.84,9.64-9.77,19.24-14.87,28.74-5.24,9.76-15.55,10.53-21.66,2.25-1.88-2.54-1.7-7.94-.41-11.21,3.04-7.68,7.34-14.87,11.12-22.26,4.66-9.12,9.25-18.27,13.99-27.34,9.34-17.88,18.74-35.74,28.18-53.56.64-1.2,1.9-2.07,2.86-3.1,1.1,1.09,2.53,2,3.25,3.3,2.71,4.9,5.29,9.88,7.74,14.92,1.47,3.02,2.17,5.88.21,9.39-4.67,8.38-8.7,17.11-13.09,25.65-2.68,5.22-2.42,5.79,3.25,5.77,2,0,4-.03,6-.03,2,0,4,0,6,0Z"/>
    <path class="cls-2" d="m400.53,160.49c-.43,5.78-3.56,10.28-8.32,11.46-5.55,1.37-10.54-.99-13.17-6.39-11.66-23.88-23.33-47.76-34.92-71.68-4.13-8.53-7.91-17.23-12.07-25.75-3.11-6.38-6.67-12.53-9.86-18.88-2.09-4.15-.37-7.46,2.65-10.56,3.16-3.25,6.79-4.29,11.1-3.35,4.63,1.01,7.33,4.09,9.4,8.22,5.91,11.83,12.25,23.45,18.06,35.33,8.34,17.08,16.39,34.31,24.49,51.51,3.76,7.98,7.42,16.01,10.99,24.07.83,1.88,1.13,4,1.67,6.01Z"/>
  </g>
  <g>
    <g>
      <path class="cls-2" d="m650.32,191.4c19.35,0,30.34,15.32,30.34,34.98,0,22.58-14.42,35.18-31.55,35.18-18.35,0-30.55-14.41-30.55-34.68s13-35.48,31.76-35.48Zm21.07,35.18c0-13.91-6.76-28.03-21.68-28.03-14.11,0-21.78,12.71-21.78,28.03s7.87,27.83,21.68,27.83,21.78-13.01,21.78-27.83Z"/>
      <rect class="cls-2" x="576.92" y="192.51" width="8.87" height="67.95"/>
      <path class="cls-2" d="m544.16,224.87c0,11.09-3.43,20.06-9.78,26.41-6.45,6.35-16.84,9.78-30.04,9.78-6.26,0-11.5-.3-16.03-.81v-66.84c5.44-.8,11.79-1.41,18.75-1.41,12.6,0,21.57,2.93,27.52,8.47,6.05,5.54,9.58,13.51,9.58,24.4Zm-9.18.3c.1-16.03-8.97-26.21-27.52-26.21-4.54,0-7.96.5-10.28.91v53.63c2.22.4,5.44.5,8.87.5,18.75,0,28.93-10.48,28.93-28.83Z"/>
      <path class="cls-2" d="m451.61,192.51v39.72c0,20.87-10.89,29.33-25.61,29.33-13.91,0-24.4-7.86-24.4-28.93v-40.12h8.88v40.42c0,15.02,6.65,21.48,15.82,21.48,9.98,0,16.54-6.66,16.54-21.48v-40.42h8.77Z"/>
      <polygon class="cls-2" points="372.67 192.51 372.67 199.97 351.9 199.97 351.9 260.46 343.03 260.46 343.03 199.97 322.36 199.97 322.36 192.51 372.67 192.51"/>
      <path class="cls-2" d="m298.06,194.72l-2.42,7.16c-2.21-1.21-6.75-3.22-12.9-3.22-9.27,0-12.8,5.54-12.8,10.18,0,6.35,4.13,9.47,13.51,13.1,11.49,4.54,17.34,9.98,17.34,19.97,0,10.48-7.77,19.65-23.8,19.65-6.65,0-13.81-2.01-17.44-4.43l2.32-7.36c3.93,2.42,9.68,4.43,15.73,4.43,8.97,0,14.21-4.73,14.21-11.59,0-6.35-3.63-9.98-12.9-13.51-10.99-3.83-17.84-9.78-17.84-19.25,0-10.49,8.77-18.35,21.97-18.35,6.86,0,12,1.61,15.02,3.22Z"/>
    </g>
    <g>
      <path class="cls-2" d="m650.32,191.4c19.35,0,30.34,15.32,30.34,34.98,0,22.58-14.42,35.18-31.55,35.18-18.35,0-30.55-14.41-30.55-34.68s13-35.48,31.76-35.48Zm21.07,35.18c0-13.91-6.76-28.03-21.68-28.03-14.11,0-21.78,12.71-21.78,28.03s7.87,27.83,21.68,27.83,21.78-13.01,21.78-27.83Z"/>
      <rect class="cls-2" x="576.92" y="192.51" width="8.87" height="67.95"/>
      <path class="cls-2" d="m544.16,224.87c0,11.09-3.43,20.06-9.78,26.41-6.45,6.35-16.84,9.78-30.04,9.78-6.26,0-11.5-.3-16.03-.81v-66.84c5.44-.8,11.79-1.41,18.75-1.41,12.6,0,21.57,2.93,27.52,8.47,6.05,5.54,9.58,13.51,9.58,24.4Zm-9.18.3c.1-16.03-8.97-26.21-27.52-26.21-4.54,0-7.96.5-10.28.91v53.63c2.22.4,5.44.5,8.87.5,18.75,0,28.93-10.48,28.93-28.83Z"/>
      <path class="cls-2" d="m451.61,192.51v39.72c0,20.87-10.89,29.33-25.61,29.33-13.91,0-24.4-7.86-24.4-28.93v-40.12h8.88v40.42c0,15.02,6.65,21.48,15.82,21.48,9.98,0,16.54-6.66,16.54-21.48v-40.42h8.77Z"/>
      <polygon class="cls-2" points="372.67 192.51 372.67 199.97 351.9 199.97 351.9 260.46 343.03 260.46 343.03 199.97 322.36 199.97 322.36 192.51 372.67 192.51"/>
      <path class="cls-2" d="m298.06,194.72l-2.42,7.16c-2.21-1.21-6.75-3.22-12.9-3.22-9.27,0-12.8,5.54-12.8,10.18,0,6.35,4.13,9.47,13.51,13.1,11.49,4.54,17.34,9.98,17.34,19.97,0,10.48-7.77,19.65-23.8,19.65-6.65,0-13.81-2.01-17.44-4.43l2.32-7.36c3.93,2.42,9.68,4.43,15.73,4.43,8.97,0,14.21-4.73,14.21-11.59,0-6.35-3.63-9.98-12.9-13.51-10.99-3.83-17.84-9.78-17.84-19.25,0-10.49,8.77-18.35,21.97-18.35,6.86,0,12,1.61,15.02,3.22Z"/>
    </g>
  </g>
</svg>